<svg width="54" height="54" viewBox="0 0 54 54" fill="none" xmlns="http://www.w3.org/2000/svg">
<path d="M27 54C41.9117 54 54 41.9117 54 27C54 12.0883 41.9117 0 27 0C12.0883 0 0 12.0883 0 27C0 41.9117 12.0883 54 27 54Z" fill="#F3F3F3"/>
<mask id="mask0_1184_2177" style="mask-type:luminance" maskUnits="userSpaceOnUse" x="0" y="0" width="54" height="54">
<path d="M27 54C41.9117 54 54 41.9117 54 27C54 12.0883 41.9117 0 27 0C12.0883 0 0 12.0883 0 27C0 41.9117 12.0883 54 27 54Z" fill="white"/>
</mask>
<g mask="url(#mask0_1184_2177)">
<path d="M38.6395 22.5489C38.6141 21.9657 38.4936 21.4585 38.3225 20.9704C38.3986 20.533 38.3225 20.0638 38.0943 19.6835C38.0752 19.5313 38.0372 19.3855 37.9675 19.246C37.9548 19.2017 37.9294 19.1573 37.9041 19.1129C37.8217 19.0622 37.7646 18.9734 37.7519 18.8657C37.7392 18.8467 37.7266 18.8276 37.7075 18.8086C37.7012 18.7516 37.6885 18.7008 37.6758 18.6438V18.5804C37.6758 18.5297 37.6758 18.479 37.6758 18.4282C37.6378 18.2698 37.5871 18.1113 37.5427 17.9528C37.5427 17.9464 37.5364 17.9401 37.53 17.9274C37.5237 17.9021 37.511 17.8514 37.4983 17.7943C37.4983 17.7816 37.492 17.7689 37.4857 17.7563C37.4413 17.5597 37.4032 17.3695 37.3652 17.173C37.3272 17.1033 37.2891 17.0336 37.2511 16.9638C37.1306 16.7483 37.0039 16.5644 36.8327 16.3806C36.6932 16.2348 36.5474 16.0953 36.4079 15.9495H36.3953C34.2525 14.0286 30.7785 14.7703 28.3504 15.7213C28.2553 15.7593 28.1983 15.6008 28.1159 15.6579C27.1079 15.2521 26.0999 14.8337 25.0412 14.5802C22.7526 14.035 20.2866 14.5738 18.4798 16.0763C18.4227 16.1397 18.3657 16.2031 18.3023 16.2601C18.1375 16.425 18.0043 16.5898 17.8775 16.7863C17.7254 17.0209 17.5732 17.2491 17.4465 17.4963C17.3704 17.6358 17.3006 17.7816 17.2309 17.9211C17.1105 18.4346 16.8379 18.891 16.7745 19.4236C16.6984 20.0638 16.6921 20.7105 16.6984 21.3508C16.7047 22.606 16.8315 23.8612 16.99 25.1038C17.0661 25.7124 17.1739 26.2956 17.3197 26.8725C17.4211 27.1514 17.5289 27.424 17.643 27.6966C19.2405 29.6429 20.7937 31.6208 22.3089 33.6304C23.1837 34.7905 24.1156 35.9317 24.9271 37.1362C25.523 38.0237 25.878 38.981 26.1569 39.9826C26.1569 40.0016 26.1633 40.0206 26.1696 40.0397C26.3281 40.8828 26.5373 41.726 26.9367 42.474C27.4756 43.9385 28.604 45.5107 29.1048 46.5313C30.0621 48.4712 29.8402 50.6774 32.2809 51.026C33.1241 51.1465 33.8214 50.7027 33.8785 49.8089C34.0623 46.918 34.3222 44.0336 34.7216 41.1618C34.7407 41.0033 34.7724 40.8384 34.7977 40.6799C34.9879 39.9953 35.1781 39.3043 35.3492 38.6069C35.7994 37.5165 36.2938 36.4261 36.4713 35.285C36.4904 35.1709 36.4904 35.0568 36.484 34.949C36.6932 33.8586 36.7186 32.7365 36.8961 31.6271C37.1687 29.8774 37.6758 28.1721 38.0372 26.4414C38.3732 24.8502 38.7028 24.1528 38.6395 22.5172V22.5489Z" fill="#F2DEBA"/>
<path d="M34.2655 86.813C39.99 80.1946 42.5005 71.37 42.1455 62.7102C42.0314 59.8194 41.5369 57.049 40.8903 54.304C40.6303 52.7255 40.25 51.1659 39.8189 49.6191C39.7491 49.3719 39.6794 49.131 39.6097 48.8837C39.5907 48.7759 39.5653 48.6745 39.5336 48.5731C39.5019 48.4716 39.4639 48.3702 39.4322 48.2688C39.1279 47.2228 38.8172 46.1704 38.5256 45.1244C38.532 45.0166 38.5256 44.9025 38.5003 44.7947C38.4052 44.4144 38.2784 44.0467 38.1453 43.6853C38.0819 43.4444 38.0185 43.2098 37.9614 42.9689C37.8093 42.3413 37.6698 41.7074 37.5493 41.0734C37.4225 40.4014 37.3275 39.7231 37.1816 39.0511C37.1626 38.7278 37.1373 38.4045 37.1119 38.0875C37.1056 37.9924 37.0802 37.8973 37.0549 37.8086C37.0802 37.0795 36.9851 36.3441 36.7696 35.6468C36.8266 35.5137 36.8773 35.3805 36.9281 35.2474C36.9471 35.1967 36.9407 35.1523 36.9281 35.1143C36.9344 35.0889 36.9471 35.0572 36.9534 35.0319C37.0232 34.7719 36.6174 34.6578 36.5477 34.9178C36.3512 35.6785 35.7806 36.2554 35.4256 36.9401C35.3178 37.1493 35.2354 37.3648 35.1657 37.5804C35.0833 37.7262 35.0262 37.891 35.0135 38.0812C35.0009 38.2587 34.9755 38.4299 34.9628 38.6074C34.9628 38.6454 34.9565 38.6834 34.9501 38.7215C34.836 40.0021 34.6966 41.27 34.5064 42.5188C34.4937 42.6013 34.481 42.6773 34.4683 42.7534C34.3923 44.7504 33.809 46.7029 33.8534 48.7125C33.8661 49.3211 33.9485 49.9171 34.0753 50.5003C34.5951 50.8299 35.3115 51.1025 36.0596 51.2293C36.8583 53.4355 37.8219 55.6036 38.2467 57.9175C38.5256 59.4327 38.7538 61.5057 38.4305 63.3315C38.5256 65.3157 38.5066 67.3063 38.2847 69.3287C37.9551 72.3589 37.0168 75.104 35.508 77.7475C34.7283 79.1105 33.8788 80.4291 33.0546 81.7668C33.0419 81.7795 33.0229 81.7858 33.0102 81.7921C31.8818 82.6543 30.1194 82.6036 28.7691 82.3437C27.0891 82.0267 25.8846 81.0504 25.3521 79.4021C24.3758 76.3655 25.6057 72.5808 26.0368 69.5125C26.4679 66.4759 26.8673 63.4329 27.2159 60.3899C27.2223 60.3075 27.2349 60.2251 27.2413 60.1427C27.2223 60.0666 27.2096 59.9842 27.2096 59.8955C27.2286 57.2075 27.5583 54.5576 27.8499 51.895C27.9513 50.9567 28.021 49.5367 28.693 48.7189C28.7374 48.2878 28.7564 47.8504 28.7311 47.4129C28.6804 46.5951 28.4014 45.8217 28.1352 45.0483C27.964 44.5411 27.8118 44.034 27.7294 43.5141C27.5202 43.3493 27.3427 43.1591 27.2413 42.9499C26.918 42.2843 26.8039 41.4665 26.582 40.7628C26.0875 39.1843 25.4789 37.6121 24.6357 36.1857C23.7736 34.7276 22.6198 33.4723 21.5421 32.1664C21.4596 32.065 21.3772 31.9635 21.2948 31.8621C21.2821 31.8431 21.2695 31.8241 21.2568 31.7987C20.7116 30.9429 20.1347 30.1061 19.5261 29.2946C19.3739 29.0854 19.2155 28.8825 19.0696 28.667C19.0316 28.5782 18.9872 28.4958 18.9365 28.4134C18.9175 28.3881 18.8985 28.369 18.8858 28.3437C18.8034 28.2105 18.7083 28.0901 18.6195 27.957C18.6069 27.9443 18.5942 27.9316 18.5815 27.9126C18.3596 27.5449 18.1568 27.1582 17.9983 26.7461C17.6433 25.8332 17.415 24.8823 17.041 23.9821C16.8889 23.215 16.7938 22.4353 16.7938 21.6491C16.7938 20.9898 16.8445 20.3242 16.9903 19.6839C17.079 19.3035 17.1805 18.8978 17.3833 18.5618C17.5672 18.2575 17.713 17.9405 17.8461 17.6109C18.2835 16.9706 18.8414 16.4317 19.5007 16.0197C19.7099 15.8929 19.9255 15.7661 20.141 15.6456C20.3819 15.5315 20.6228 15.4237 20.8701 15.3287C21.3646 15.1448 21.8717 15.0053 22.3916 14.9166C22.6768 14.7835 23.0128 14.7327 23.3108 14.6947C23.5644 14.663 23.837 14.6503 24.0969 14.682C24.1983 14.682 24.2997 14.682 24.4012 14.682C24.6991 14.663 25.0034 14.682 25.2951 14.7518C25.3838 14.7708 25.4726 14.8025 25.5613 14.8405C25.967 14.9356 26.3664 15.0687 26.7405 15.2462C27.2032 15.4681 27.647 15.8612 27.9893 16.2289C28.338 16.6029 28.4838 17.1164 28.636 17.5919C28.6867 17.6996 28.7311 17.8137 28.7501 17.9342C28.7564 18.3336 28.7628 18.7393 28.7691 19.1387H28.6296C28.5219 19.1387 28.4141 19.2338 28.4204 19.3479C28.4204 19.462 28.5155 19.5571 28.6296 19.5571H29.2129C29.3206 19.5571 29.4284 19.462 29.4221 19.3479C29.4221 19.2338 29.327 19.1387 29.2129 19.1387C29.2192 19.0626 29.2129 18.9929 29.2129 18.9168C29.2636 18.8851 29.3016 18.8344 29.2889 18.7583C29.2446 18.5047 29.2002 18.2512 29.1622 17.9976C29.1431 17.5475 29.2065 17.0847 29.4601 16.7107C29.7644 16.2669 30.2335 15.9372 30.6393 15.6013C30.8231 15.5442 31.007 15.4745 31.1845 15.3984C31.5014 15.2653 31.8184 15.1258 32.1544 15.0687C32.2495 15.0624 32.3446 15.0497 32.4397 15.0434C32.4777 15.0434 32.5221 15.0434 32.5601 15.0434C32.5792 15.0434 32.5982 15.0434 32.6109 15.037C33.4477 14.999 34.2845 15.0624 35.0452 15.2906C35.2354 15.373 35.4193 15.4618 35.5968 15.5379C35.6602 15.5505 35.7236 15.5696 35.7806 15.5949C35.9328 15.6583 36.0659 15.7534 36.1927 15.8612C36.2561 15.8738 36.3195 15.8992 36.3702 15.9372C36.9724 16.4444 37.4162 17.1798 37.543 17.9595C37.5557 18.0356 37.543 18.1117 37.5176 18.1751C37.5874 18.3526 37.6444 18.5428 37.6761 18.733C37.6761 18.733 37.6761 18.733 37.6761 18.7393C37.7585 18.9295 37.841 19.1007 37.9234 19.2338C38.0248 19.3923 38.2277 19.3352 38.2974 19.2084C38.4115 19.1958 38.5193 19.1324 38.589 19.0056C38.6904 18.809 38.8299 18.6569 38.9947 18.5238C39.2039 18.4477 39.4132 18.3716 39.616 18.2829C39.7048 18.2702 39.7935 18.2512 39.8759 18.2068C39.9901 18.1688 40.0851 18.1054 40.1676 18.0293C40.3007 17.9722 40.4402 17.9279 40.586 17.9152C40.5986 17.9152 40.6113 17.9152 40.624 17.9088C40.6937 17.8962 40.7635 17.8771 40.8332 17.8645C41.1629 17.8011 41.2136 17.3763 41.017 17.1608C40.4719 16.5458 39.7238 16.1528 39.0264 15.7471C38.9884 15.728 38.9504 15.7027 38.9123 15.6837C38.2784 15.1004 37.4162 14.3207 36.6491 13.9403C36.1356 13.6867 35.7299 12.7611 35.191 12.5583C34.7536 12.3998 34.2781 12.2033 33.8027 12.1526C33.7013 12.1018 33.5998 12.0638 33.4984 12.0194C33.4667 12.0067 33.435 11.9877 33.4033 11.9687C33.3906 11.9687 33.3779 11.9687 33.3653 11.9624C30.8421 10.9163 27.9386 11.0305 25.2443 11.2777C23.5517 11.4362 22.0239 12.0194 20.3692 12.4949C18.6132 13.002 17.9856 14.9736 16.8191 15.7027C16.667 15.7851 16.5212 15.8738 16.3754 15.9626C16.2422 16.0133 16.1154 16.0767 15.9886 16.1338C15.9379 16.1464 15.8872 16.1655 15.8428 16.1781C15.7351 16.2162 15.64 16.2732 15.5702 16.3493C15.5512 16.362 15.5322 16.3683 15.5195 16.381C15.4498 16.4 15.38 16.4254 15.3167 16.4571C15.1455 16.5395 15.0884 16.679 15.1074 16.8184C15.0884 16.8184 15.0758 16.8058 15.0567 16.8058C14.9933 16.8058 14.949 16.8311 14.9109 16.8692C14.9109 16.8692 14.9109 16.8692 14.9046 16.8692C14.7398 16.9706 14.7715 17.2749 14.9997 17.2559C15.2089 17.2368 15.4308 17.2242 15.6336 17.2749C15.64 17.2749 15.6463 17.2812 15.659 17.2812C15.697 17.3129 15.7414 17.3383 15.7921 17.3383C15.9189 17.408 16.014 17.5221 16.0901 17.6553C16.2612 17.9595 16.3627 18.3209 16.4134 18.6759C16.3944 18.7266 16.3817 18.7773 16.3817 18.8281C16.3817 18.8978 16.4071 18.9739 16.4514 19.0436C16.4514 19.0499 16.4514 19.0626 16.4514 19.069C16.4514 19.145 16.4958 19.2021 16.5402 19.2338C16.5402 19.2211 16.5529 19.2148 16.5529 19.2021C16.5085 19.481 16.5021 19.7663 16.4831 20.0453C16.4641 20.3812 16.4387 20.7172 16.4197 21.0469C16.3817 21.7062 16.3627 22.3719 16.4578 23.0248C16.4895 23.2277 16.5338 23.4242 16.5909 23.6144C16.5909 23.6398 16.5909 23.6715 16.6036 23.7032C16.6099 23.7158 16.6163 23.7348 16.6226 23.7475C16.5465 23.7602 16.4768 23.8236 16.5085 23.925C16.5275 23.9758 16.5402 24.0265 16.5592 24.0835C16.5592 24.0962 16.5592 24.1025 16.5592 24.1152C16.5846 24.28 16.6289 24.4322 16.6733 24.5907C16.7494 25.2437 16.6353 25.9156 16.6606 26.5686C16.6606 26.7208 16.6796 26.8666 16.6923 27.0187C16.5529 27.4561 16.5148 28.1218 16.5465 28.4071C16.5719 28.6036 16.6099 28.7811 16.6606 28.9523C16.4197 29.2819 16.4007 29.732 16.5909 30.1187C16.9649 30.8668 16.7494 31.6466 16.9459 32.4453C16.9459 32.4834 16.9332 32.5214 16.9332 32.5658C16.9396 33.6625 16.9522 34.7593 16.9649 35.856C16.8064 37.8403 16.6543 39.8245 16.5846 41.8088C16.5148 42.1892 16.4578 42.5505 16.4578 42.8548C16.3817 43.0006 16.3373 43.1718 16.3437 43.381C16.3563 43.66 16.4007 43.9262 16.4641 44.1798C16.4641 44.2368 16.4641 44.3002 16.4641 44.3573C16.407 44.4841 16.369 44.6236 16.3817 44.7694C16.4007 44.9405 16.4324 45.099 16.4704 45.2575C16.4704 45.3653 16.4704 45.4731 16.4704 45.5808C16.3817 46.5444 16.3183 47.508 16.2929 48.4716C16.2929 48.5794 16.2929 48.6935 16.2929 48.8013C16.2232 49.2134 16.1661 49.6191 16.1281 50.0375C16.0774 50.5954 15.9443 51.2484 16.2105 51.7745C16.2105 51.7809 16.2169 51.7872 16.2232 51.7935C16.1281 52.5733 16.1535 53.3657 16.2486 54.1519C15.8935 55.4895 15.8682 56.8715 15.9886 58.2535C15.6083 62.7926 16.1661 67.2556 16.1725 71.9025L16.667 90.0145C16.6416 90.2491 16.6163 90.49 16.5909 90.7245C16.5655 91.0352 16.5909 91.3521 16.667 91.6438C16.667 92.0748 16.667 92.4996 16.667 92.9307C16.667 93.0828 16.6987 93.216 16.7494 93.3364C16.7621 93.4252 16.7747 93.5202 16.7874 93.609C16.8318 93.9133 17.0664 94.1288 17.339 94.243C17.3516 94.2937 17.3643 94.338 17.3897 94.3888C17.4531 94.5346 17.5735 94.655 17.7067 94.7374C17.732 94.7565 17.7637 94.7691 17.7954 94.7755C17.9919 94.9657 18.2392 95.1115 18.4991 95.1875C18.8351 95.4094 19.2218 95.5552 19.6148 95.625C19.7416 95.644 19.8684 95.6693 19.9952 95.6757C20.7877 95.7708 21.5864 95.4728 22.1126 94.8642C22.1507 94.8389 22.1887 94.8135 22.2267 94.7818C22.3979 94.6297 22.531 94.4268 22.5754 94.2049C22.5944 94.1288 22.6008 94.0528 22.5944 93.983C22.7973 93.3047 22.7085 92.5249 22.7022 91.8339C22.7022 91.5613 22.7022 91.2887 22.7022 91.0098C22.7466 90.8703 22.8036 90.7372 22.8797 90.6104C22.9304 90.5217 22.9684 90.4392 22.9938 90.3505C23.4186 89.7863 23.9067 89.2538 24.4265 88.7402C24.1856 89.3298 23.9384 89.9194 23.7038 90.5153C23.3869 91.3014 23.0889 92.1446 23.3742 92.9877C23.3742 93.0004 23.3869 93.0131 23.3932 93.0321C23.3932 93.2603 23.482 93.4949 23.6848 93.7041C24.5343 94.5663 25.4535 95.3587 26.5883 95.8152C27.59 96.2209 29.0924 96.4808 30.0687 95.8532C30.4871 95.5806 30.6139 95.1685 30.5378 94.6994C30.5188 94.5853 30.4871 94.4712 30.4427 94.3571C30.4427 94.3317 30.4364 94.3127 30.4301 94.2873C30.2399 93.7802 30.1194 93.273 30.0877 92.7468C30.0877 92.7151 30.075 92.6771 30.075 92.6454C30.1004 92.3728 30.1892 92.0748 30.373 91.7515C30.9626 89.7419 32.9532 88.2775 34.2718 86.7496L34.2655 86.813Z" fill="#BF9D75"/>
<path d="M39.5272 61.5189C39.0391 60.1686 38.7475 58.7358 38.0882 57.4553C37.9297 57.151 37.9994 56.7769 38.2784 56.5741C37.86 55.135 37.4162 53.7023 37.0168 52.2569C36.0785 48.8589 35.3939 45.3912 34.6268 41.9551C34.2274 40.1611 31.5141 40.8711 31.7994 42.6271C31.6092 42.7983 31.4634 43.0455 31.4 43.3752C31.121 44.8396 30.8421 46.3041 30.5695 47.7685C30.4237 45.873 30.1828 43.9775 30.0433 42.12C29.9039 40.2625 26.9877 40.2435 27.1271 42.12C27.3807 45.4989 28.021 49.0871 27.7357 52.4724C27.4822 55.5027 25.7705 58.3555 24.8196 61.2019C23.8369 64.1498 23.1396 67.1864 22.7085 70.2674C22.3028 73.1963 22.0429 76.0554 23.4502 78.7687C24.604 81.0002 26.4742 82.8894 29.0734 83.1683C31.6219 83.4409 33.8344 82.2301 35.2354 80.1444C36.8583 77.7354 38.3164 74.946 39.2166 72.182C40.1866 69.2087 40.2246 66.096 39.7808 63.0277C39.7111 62.5205 39.6223 62.0197 39.5209 61.5189H39.5272Z" fill="#F2DEBA"/>
<path d="M39.616 23.323C39.99 23.0504 40.4528 22.9236 40.7697 22.5749C41.0614 22.2453 41.2389 21.8015 41.3466 21.3831C41.4798 20.8696 41.4798 20.3371 41.4798 19.8109C41.4798 19.5827 41.4861 19.3481 41.3974 19.1326C41.3149 18.9361 41.2198 18.7902 41.2008 18.5747C41.1882 18.4416 41.2515 18.3528 41.3466 18.3084C41.2896 18.2324 41.2262 18.1626 41.1501 18.1056C40.7697 17.8203 40.2626 17.8647 39.8505 18.0358C39.7554 18.0739 39.6603 18.1246 39.5716 18.1817C39.4067 18.2577 39.2609 18.3718 39.1405 18.5303C39.1278 18.5493 39.1215 18.562 39.1088 18.581C39.0454 18.6508 38.9883 18.7269 38.9376 18.8029C38.6967 19.177 38.646 19.6144 38.6397 20.0518C38.627 21.0535 38.6397 22.0614 38.6397 23.0631C38.6397 23.4054 38.9249 23.697 39.2736 23.697C39.3497 23.697 39.4258 23.678 39.4955 23.6527C39.4765 23.5385 39.5082 23.4118 39.6223 23.3293L39.616 23.323Z" fill="#4E3826"/>
<path d="M16.477 22.8672C16.3312 22.4488 16.2108 22.024 16.122 21.5993C16.16 21.1429 16.0966 20.6864 15.9889 20.2363C15.9698 20.1729 15.9572 20.1032 15.9382 20.0398C15.9255 19.6657 15.9255 19.2981 15.9572 18.924C15.9762 18.7085 16.0015 18.4993 15.9445 18.2837C15.8621 17.9668 15.5768 17.7639 15.2725 17.6878C14.4293 17.4786 13.5799 17.9351 13.1234 18.6324C12.6162 19.4122 12.743 20.4265 13.1361 21.2253C13.5799 22.1255 14.4293 22.7404 15.2218 23.3173C15.2662 23.349 15.3105 23.368 15.3613 23.3807C15.5134 23.5962 15.767 23.7167 16.0396 23.6406C16.3502 23.5519 16.5911 23.1905 16.4833 22.8609L16.477 22.8672Z" fill="#4E3826"/>
<path d="M26.3789 17.2179C26.4169 16.5333 26.1824 15.7028 25.4153 15.3034C24.5785 14.866 23.5071 15.1005 22.6703 15.3097C21.8778 15.5063 21.0664 15.7218 20.4134 16.1529C20.2169 16.2797 20.0203 16.4382 19.8492 16.6157C19.7731 16.641 19.697 16.6854 19.6336 16.7488C19.1075 17.256 18.9363 17.9787 19.1582 18.6507C19.4118 19.4177 20.0837 19.9376 21.0157 20.0644C22.6386 20.2863 24.4136 20.0137 25.504 18.9803C26.0048 18.5048 26.3472 17.8646 26.3852 17.2116L26.3789 17.2179Z" fill="#4E3826"/>
<path d="M37.2771 17.7823C37.1439 17.0216 36.7065 16.4066 36.0218 15.9502C35.3372 15.4937 34.4813 15.3099 33.6509 15.2021C33.6001 15.2021 33.5494 15.1894 33.4987 15.1831C33.4924 15.1831 33.4797 15.1831 33.4734 15.1768C33.2578 15.1768 33.0423 15.1958 32.8267 15.2148C32.757 15.2211 32.6936 15.2275 32.6239 15.2338C32.5795 15.2338 32.3703 15.2845 32.5478 15.2402C32.44 15.2655 32.3196 15.2655 32.2055 15.2909C32.1547 15.3035 32.1104 15.3162 32.0596 15.3289C31.9709 15.3733 31.8885 15.4177 31.7997 15.462C31.6666 15.5318 31.5335 15.5825 31.4003 15.6269C30.8361 16.1974 30.6269 17.0089 30.5952 17.7569C30.5572 18.5113 30.8234 19.3165 31.5018 19.8046C32.1864 20.2991 33.1944 20.3498 34.0376 20.3942C34.9061 20.4386 35.8126 20.2484 36.5544 19.8173C37.3531 19.3482 37.4229 18.5557 37.2897 17.776L37.2771 17.7823Z" fill="#4E3826"/>
<path d="M25.1557 16.9963C24.9655 16.6539 24.6105 16.3433 24.1794 16.2165C24.0336 16.1785 23.8878 16.1531 23.742 16.1468C23.3426 16.001 22.8925 16.0517 22.5121 16.1848C22.1634 16.3053 21.8338 16.4891 21.5992 16.7363C21.3393 17.0089 21.2125 17.3513 21.2569 17.7063C21.2949 18.0359 21.5041 18.3719 21.7323 18.6382C21.9859 18.9362 22.36 19.1897 22.7974 19.2468C23.0066 19.2722 23.2095 19.2468 23.3996 19.1961C23.4947 19.2214 23.5898 19.2405 23.6913 19.2405C23.9385 19.2405 24.1731 19.1073 24.3696 18.9996C25.1113 18.5875 25.5678 17.7507 25.162 16.9963H25.1557Z" fill="#22120A"/>
<path d="M33.5428 16.0513C33.2829 15.9055 32.9532 15.8547 32.6553 15.9245C32.6426 15.9245 32.6299 15.9308 32.6173 15.9372C32.5095 15.9372 32.3954 15.9498 32.2876 16.0006C32.0784 16.102 31.8692 16.2034 31.66 16.3175C31.5078 16.3999 31.3747 16.4824 31.2733 16.6155C31.1845 16.7296 31.1592 16.85 31.1401 16.9832C31.1021 17.2304 31.0577 17.4777 31.0894 17.7249C31.1275 18.0419 31.2352 18.3081 31.4635 18.549C31.7995 18.9104 32.3193 19.1259 32.8328 19.164C33.3843 19.2083 33.8788 18.9548 34.1958 18.5617C34.8234 17.782 34.4113 16.5394 33.5365 16.0449L33.5428 16.0513Z" fill="#22120A"/>
<path d="M24.5852 16.8893C24.0209 16.8005 23.9068 17.5359 24.4774 17.6183C25.0479 17.7007 25.1557 16.9717 24.5852 16.8893Z" fill="#FFF5EB"/>
<path d="M33.6948 16.6353C33.1686 16.6353 33.1686 17.3706 33.6948 17.3706C34.221 17.3706 34.221 16.6353 33.6948 16.6353Z" fill="#FFF5EB"/>
<path d="M30.1703 18.5107C29.9357 18.4093 29.6504 18.4346 29.3969 18.4283C29.0165 18.4283 28.6234 18.4156 28.2431 18.4537C27.9198 18.4854 27.6028 18.5931 27.4253 18.8974C27.2541 19.189 27.2668 19.5631 27.4506 19.8483C27.6028 20.0829 27.8373 20.2604 28.0846 20.3745C28.3762 20.514 28.7249 20.6028 29.0419 20.476C29.0926 20.4569 29.1433 20.4316 29.1877 20.4062C29.3652 20.4886 29.5744 20.4823 29.7646 20.3809C30.1259 20.1843 30.4936 19.9054 30.595 19.4807C30.6901 19.0939 30.557 18.6755 30.1703 18.5107Z" fill="#210F0A"/>
<path d="M26.087 11.1194C25.789 11.1384 25.4911 11.1511 25.1931 11.1701C25.098 11.1701 25.0093 11.1955 24.9205 11.2208C24.8952 11.1891 24.8635 11.1638 24.8254 11.1574C24.724 11.1257 24.5909 11.1955 24.5655 11.3033C24.4894 11.6709 24.4324 12.0513 24.5085 12.4253C24.5845 12.7804 24.7811 13.1227 24.9269 13.4523C25.0029 13.6172 25.098 13.7883 25.3136 13.763C25.3263 13.763 25.3389 13.7566 25.3453 13.7503C25.377 13.7503 25.4023 13.7376 25.4213 13.7249C25.5418 13.6742 25.6432 13.5665 25.7193 13.4714C25.9095 13.2178 25.9919 12.8881 26.068 12.5838C26.1758 12.1718 26.2455 11.7534 26.2899 11.3286C26.3025 11.2208 26.1821 11.1131 26.0807 11.1194H26.087Z" fill="#704633"/>
<path d="M29.2828 11.4181C29.2701 11.2787 29.2321 11.1328 29.08 11.0885C28.9405 11.0504 28.7757 11.0631 28.6298 11.0504C28.484 11.0441 28.3446 11.0314 28.1988 11.0251C28.11 11.0251 28.0149 11.0061 27.9262 11.0251C27.8247 10.8793 27.5395 10.911 27.5395 11.1392C27.5395 11.4308 27.5204 11.7414 27.5648 12.0267C27.5838 12.1535 27.6345 12.2676 27.6789 12.3881L27.7043 12.4451C27.7106 12.5656 27.717 12.686 27.7233 12.8065C27.7233 12.8318 27.7296 12.8635 27.7423 12.8889C27.7423 12.9903 27.7487 13.0854 27.755 13.1869C27.793 13.6687 27.8184 14.1695 28.0213 14.6132C28.072 14.721 28.2178 14.74 28.3129 14.6893C28.4206 14.6323 28.4904 14.5435 28.5411 14.4421C28.6298 14.347 28.6615 14.1948 28.6869 14.0744C28.7313 13.8779 28.7503 13.6813 28.7693 13.4848C28.7947 13.3897 28.82 13.2946 28.8454 13.1995C28.8581 13.1742 28.8708 13.1488 28.8771 13.1235C28.9849 12.8572 29.0736 12.5783 29.1497 12.2993C29.2258 12.0204 29.3018 11.7224 29.2765 11.4308L29.2828 11.4181Z" fill="#704633"/>
<path d="M31.4633 11.2585C31.3682 11.2268 31.2541 11.2268 31.1527 11.2205C31.0386 11.2205 30.9181 11.2078 30.804 11.2205C30.7533 11.2205 30.7152 11.2395 30.6709 11.2649C30.5441 11.2078 30.3602 11.2649 30.3602 11.4424C30.3602 11.9115 30.3602 12.3743 30.3856 12.8434C30.3919 13.0399 30.3666 13.2998 30.5694 13.414C30.823 13.5598 30.9878 13.2491 31.0766 13.0716C31.178 12.8688 31.2668 12.6659 31.3619 12.463C31.457 12.2602 31.5521 12.0636 31.6155 11.8481C31.6788 11.6389 31.7232 11.3536 31.4633 11.2649V11.2585Z" fill="#704633"/>
<path d="M31.4826 57.202C31.4826 56.3081 31.5016 55.4079 31.4826 54.5077C31.4636 53.6202 31.2861 52.8151 30.9311 52.0036C30.5697 51.1985 30.1577 50.4251 29.8026 49.6199C29.4476 48.8212 29.1243 48.0034 28.82 47.1792C28.2495 45.6134 27.793 43.889 26.4998 42.7416C26.0813 42.3675 25.4601 42.9888 25.8785 43.3628C26.5061 43.9144 26.9055 44.6244 27.2288 45.3788C27.045 45.4105 26.8928 45.55 26.9118 45.7909C27.0893 47.8385 26.766 49.8799 26.8104 51.9275C26.8231 52.6059 26.8928 53.2778 27.0069 53.9372C26.9689 53.9562 26.9308 53.9815 26.8991 54.0132C26.7216 54.1907 26.7407 54.457 26.8991 54.6345C27.1464 54.9198 27.2098 55.2558 27.2859 55.6171C27.3619 55.9848 27.4634 56.3462 27.5838 56.7075C27.6345 56.8597 27.6916 57.0055 27.7486 57.1513C27.7677 58.3812 28.1353 59.7568 29.5174 60.0294C30.1133 60.1435 30.7346 59.9977 31.1086 59.4969C31.5904 58.8566 31.489 57.9627 31.489 57.2083L31.4826 57.202Z" fill="#BF9D75"/>
<path d="M15.9696 34.4741C15.8111 34.5692 15.6336 34.6326 15.4497 34.6263C15.399 34.6263 15.3547 34.7087 15.3039 34.715C14.6636 34.8101 14.0551 34.7467 13.4401 34.9623C13.307 35.032 13.1739 35.089 13.0407 35.1524C13.0281 35.1715 13.0154 35.1905 12.9964 35.2095C12.9139 35.3173 12.8315 35.3997 12.7238 35.4821C12.5779 35.5962 12.4004 35.6342 12.2736 35.7674C12.0264 36.0273 11.7728 36.2745 11.4939 36.4901C10.974 37.2445 10.5366 38.0623 10.1753 38.8991C9.81392 39.7549 9.56034 40.6742 9.7632 41.6061C9.7949 41.7455 9.95973 41.7899 10.0738 41.7329C10.6634 41.4159 10.974 40.8073 11.1516 40.1924C11.3608 39.4633 11.4749 38.7406 11.9186 38.1067C12.654 37.048 13.9156 36.433 15.1391 36.1414C15.4117 36.078 15.7033 36.0273 15.9252 35.8434C16.1915 35.6342 16.2549 35.3109 16.2422 34.9876C16.2295 34.734 16.1851 34.6326 15.9759 34.4678L15.9696 34.4741Z" fill="#BC4A24"/>
<path d="M15.551 38.5571C15.2657 38.2908 14.9741 38.0182 14.7142 37.7266C14.7839 37.7266 14.8536 37.6949 14.8917 37.6252C14.9424 37.5301 14.917 37.3906 14.8156 37.3399C14.6951 37.2765 14.562 37.2321 14.4352 37.1814C14.3782 37.156 14.3274 37.1307 14.2767 37.099C14.2133 37.061 14.1436 37.0166 14.0739 37.0039C14.0168 36.9912 13.9661 36.9976 13.909 37.0229C13.89 37.0356 13.8773 37.0483 13.8583 37.0673C13.7505 37.0356 13.6301 37.1117 13.6047 37.2131C13.573 37.3272 13.6428 37.435 13.7505 37.473C13.8773 37.5174 13.9978 37.5998 14.0992 37.6949C14.2197 37.8027 14.3211 37.9295 14.4289 38.0436C14.6888 38.3289 14.9677 38.5951 15.253 38.855C15.3354 38.9311 15.4686 38.9375 15.551 38.855C15.627 38.779 15.6334 38.6332 15.551 38.5571Z" fill="#DB8347"/>
<path d="M15.7478 36.5415C15.7478 36.5415 15.7478 36.5224 15.7478 36.5161C15.7542 36.4083 15.6464 36.3006 15.5386 36.3069C15.4182 36.3069 15.3358 36.402 15.3294 36.5161C15.3167 36.6936 15.2977 36.8711 15.2724 37.0423C15.2724 37.0803 15.2597 37.1247 15.2533 37.1627C15.247 37.2198 15.2407 37.2705 15.2724 37.3276C15.285 37.3466 15.3041 37.3656 15.3231 37.3846C15.3231 37.41 15.3231 37.4353 15.3231 37.4607C15.3231 37.5685 15.4182 37.6762 15.5323 37.6699C15.6464 37.6699 15.7478 37.5748 15.7415 37.4607C15.7351 37.1818 15.7478 36.9092 15.7668 36.6302C15.7668 36.5985 15.7605 36.5668 15.7478 36.5415Z" fill="#DB8347"/>
<path d="M16.0837 39.7297C16.0393 39.4381 15.8428 39.2099 15.6209 39.026C15.006 38.335 14.2833 37.7518 13.5732 37.1622C13.4845 37.0924 13.364 37.0734 13.2753 37.1622C13.1992 37.2383 13.1865 37.3841 13.2753 37.4601C13.6747 37.7898 14.0804 38.1195 14.4671 38.4618C14.4544 38.5062 14.4608 38.5569 14.4925 38.6013C14.6763 38.8739 14.9553 39.0514 15.2215 39.2352C15.2469 39.2542 15.2722 39.2732 15.2976 39.2923C15.2976 39.2923 15.3103 39.2986 15.3166 39.3049C15.4117 39.4127 15.5131 39.5205 15.6019 39.6346C15.6019 39.6409 15.6146 39.6409 15.6209 39.6473C15.6209 39.6473 15.6209 39.6536 15.6272 39.66C15.6272 39.6726 15.6399 39.679 15.6463 39.6917L15.6589 39.7233C15.6716 39.7614 15.678 39.7994 15.6843 39.8375C15.7033 39.9452 15.8428 40.015 15.9442 39.9833C16.0647 39.9452 16.109 39.8438 16.09 39.7233L16.0837 39.7297Z" fill="#1B100D"/>
<path d="M29.2697 44.4966C29.1873 44.0972 29.3141 43.6914 29.238 43.2857C29.2 43.0955 29.1176 42.9243 28.9908 42.7912C28.9274 42.5313 28.8513 42.2777 28.7562 42.0241C28.6928 41.8466 28.4773 41.853 28.3822 41.9544C28.3695 41.9544 28.3632 41.9544 28.3505 41.9544C28.249 41.9861 28.1603 42.1002 28.2047 42.2143C28.2237 42.2714 28.2554 42.3284 28.2744 42.3855C28.2998 42.8039 28.3441 43.216 28.4012 43.628C28.3505 43.6661 28.3188 43.7231 28.3251 43.7865C28.3251 43.7865 28.3251 43.7992 28.3251 43.8055C28.2871 43.7992 28.249 43.7929 28.2173 43.8055C28.1666 43.8246 28.1159 43.8563 28.0906 43.9006C28.0652 43.9514 28.0525 44.0084 28.0715 44.0655C28.1096 44.2366 28.2237 44.3824 28.3632 44.4839C28.3632 44.5092 28.3632 44.5282 28.3632 44.5536C28.3632 44.617 28.4012 44.6804 28.4519 44.7184C28.4582 44.7375 28.4709 44.7628 28.4899 44.7818C28.585 44.8959 28.6801 45.0101 28.7816 45.1242C28.9147 45.2763 29.1239 45.1368 29.1429 44.9784C29.1493 44.9023 29.1429 44.8199 29.1556 44.7438C29.2507 44.6994 29.2951 44.598 29.2697 44.5029V44.4966Z" fill="#DB8347"/>
<path d="M28.972 45.2265C28.6424 44.4784 28.1669 43.8318 27.59 43.2549C26.9941 42.6526 26.3538 42.0884 25.8467 41.4101C25.6882 41.1945 25.3205 41.4101 25.4853 41.6256C25.9861 42.304 26.6011 42.8682 27.197 43.4577C27.7866 44.041 28.2747 44.6749 28.6107 45.442C28.7185 45.6893 29.0798 45.4737 28.972 45.2265Z" fill="#1B100D"/>
<path d="M37.264 36.4271C37.2069 36.3764 37.1435 36.332 37.0801 36.2876C37.0548 36.2686 37.0294 36.2559 37.004 36.2432C36.9787 36.2305 36.947 36.2179 36.9153 36.2115C36.8646 36.1989 36.8265 36.2052 36.7758 36.2115C36.7758 36.2115 36.7758 36.2115 36.7695 36.2115C36.4969 36.1101 36.1736 36.1101 35.9073 36.2179C35.8566 36.2369 35.8122 36.2622 35.7805 36.313C35.4318 36.668 35.0832 37.0357 34.8486 37.4794C34.7979 37.5745 34.8232 37.714 34.9247 37.7647C35.0198 37.8154 35.1592 37.7964 35.21 37.6886C35.2417 37.6316 35.2797 37.5745 35.3177 37.5175C35.3241 37.5175 35.3304 37.5238 35.3367 37.5302C35.4572 37.5555 35.5523 37.4921 35.5967 37.3843C35.603 37.3653 35.6093 37.3463 35.622 37.3273C35.622 37.3273 35.622 37.3146 35.6284 37.3083C35.6474 37.2702 35.6664 37.2322 35.6854 37.1942C35.7235 37.1244 35.7678 37.0483 35.8185 36.985C35.8185 36.985 35.8185 36.9786 35.8249 36.9723C35.8249 36.9723 35.8249 36.9723 35.8312 36.9659C35.8312 36.9659 35.8312 36.9659 35.8312 36.9723C35.8439 36.9533 35.8566 36.9406 35.8693 36.9216C35.8946 36.8899 35.92 36.8645 35.9453 36.8328C35.9961 36.7757 36.0341 36.706 36.0658 36.6363C36.0721 36.6363 36.0785 36.6363 36.0911 36.6363C36.1672 36.6363 36.2179 36.5982 36.256 36.5539C36.2877 36.5539 36.3194 36.5539 36.3511 36.5539C36.3828 36.5539 36.4145 36.5539 36.4462 36.5539C36.4525 36.5539 36.4588 36.5539 36.4652 36.5539C36.4779 36.5539 36.4842 36.5539 36.4969 36.5539C36.5603 36.5665 36.6237 36.5856 36.6807 36.6046C36.7188 36.6173 36.7631 36.6046 36.8012 36.5982C36.8012 36.5982 36.8139 36.5982 36.8202 36.5982C36.8519 36.6173 36.8772 36.6299 36.9026 36.6553C36.9406 36.687 36.9787 36.7187 37.0104 36.7567C37.0167 36.7694 37.0294 36.7821 37.0357 36.7948C37.0357 36.8074 37.0421 36.8201 37.0484 36.8328C37.0484 36.8391 37.0484 36.8455 37.0484 36.8582C37.0484 36.9089 37.0738 36.9723 37.1118 37.004C37.1498 37.042 37.2069 37.0674 37.2576 37.0674C37.3147 37.0674 37.3654 37.0483 37.4034 37.004C37.4415 36.9596 37.4605 36.9152 37.4668 36.8582C37.4795 36.6933 37.3844 36.5285 37.2703 36.4144L37.264 36.4271Z" fill="#DB8347"/>
<path d="M10.8914 43.6352C10.7963 43.5845 10.6569 43.6035 10.6061 43.7113C10.5111 43.9078 10.416 44.1043 10.3526 44.3135C10.2828 44.5354 10.2638 44.7636 10.3019 44.9919C10.3209 45.0996 10.4603 45.1694 10.5618 45.1377C10.6822 45.0996 10.7266 44.9982 10.7076 44.8778C10.7076 44.9158 10.7076 44.8461 10.7076 44.8397C10.7076 44.8144 10.7076 44.789 10.7076 44.7636C10.7076 44.7193 10.7076 44.6812 10.7139 44.6369C10.7139 44.6369 10.7139 44.6369 10.7139 44.6305C10.7139 44.6178 10.7139 44.6052 10.7203 44.5925C10.7203 44.5735 10.7266 44.5481 10.7329 44.5291C10.7456 44.4847 10.7583 44.4403 10.771 44.396C10.7837 44.3516 10.8027 44.3072 10.8154 44.2692C10.8217 44.2501 10.828 44.2311 10.8407 44.2121C10.8534 44.1867 10.8534 44.1867 10.8407 44.2058C10.8407 44.1931 10.8471 44.1867 10.8534 44.1741C10.8914 44.0853 10.9358 44.0029 10.9738 43.9205C11.0246 43.8191 11.0055 43.6859 10.8978 43.6352H10.8914Z" fill="#DB8347"/>
<path d="M15.7224 50.0569C15.7097 49.9872 15.6717 49.9364 15.621 49.8984C15.5322 49.8033 15.342 49.8097 15.2723 49.9364C15.285 49.8033 15.285 49.6638 15.2913 49.5307C15.304 49.2645 15.323 48.9982 15.342 48.7383C15.3927 47.743 15.4118 46.7477 15.4244 45.7524C15.4815 45.0297 15.5449 44.3133 15.6019 43.5906C15.621 43.318 15.2026 43.3243 15.1835 43.5906C15.1392 44.1738 15.0884 44.7507 15.0377 45.334C15.0187 45.3657 15.006 45.3973 15.006 45.4354C15.006 45.5368 15.006 45.6446 15.006 45.746C14.8856 47.2105 14.7715 48.6812 14.6447 50.1456C14.5749 50.1647 14.5052 50.1837 14.4355 50.209C13.7952 50.0949 13.1422 50.1964 12.4956 50.1013C12.3815 50.0886 12.2674 50.1266 12.2357 50.2471C12.2357 50.2598 12.2357 50.2724 12.2357 50.2851C12.1532 50.2851 12.0772 50.2851 11.9948 50.2851C11.9821 50.2851 11.9631 50.2851 11.9504 50.2788C11.9504 50.2598 11.9631 50.2407 11.9631 50.2217C11.9631 50.1013 11.868 50.0189 11.7539 50.0125C11.6271 49.9998 11.5066 49.9998 11.3862 49.9998C11.3735 49.9998 11.3671 49.9872 11.3481 49.9808C11.215 49.9491 11.0819 49.9174 10.9551 49.8857C10.9551 49.778 10.86 49.6702 10.7459 49.6765C10.6698 49.6765 10.6064 49.7209 10.5684 49.7843C10.3972 49.5561 10.4669 49.087 10.4733 48.846V47.5908C10.486 46.7477 10.4986 45.9235 10.6635 45.0931C10.6952 44.9409 10.7269 44.7824 10.7586 44.6303C10.7776 44.6176 10.7966 44.5986 10.8093 44.5796C10.8536 44.5479 10.8917 44.5098 10.9044 44.4528C10.9234 44.3703 10.9487 44.2943 10.9804 44.2182C11.0121 44.1485 11.0502 44.0787 11.0882 44.0153C11.1199 43.971 11.1262 43.9012 11.1072 43.8505C11.0945 43.8061 11.0628 43.7618 11.0185 43.7364C11.0945 43.318 11.1453 42.8996 11.2023 42.4748C11.3164 41.936 11.4242 41.3908 11.5573 40.8519C11.5573 40.8456 11.5637 40.8329 11.57 40.8266C11.6397 40.8139 11.7031 40.7758 11.7285 40.6807C11.7285 40.6681 11.7348 40.6554 11.7412 40.6427C11.7792 40.5983 11.7982 40.5413 11.7919 40.4779C11.8046 40.4462 11.8109 40.4145 11.8236 40.3828C11.8806 40.3828 11.9314 40.3448 11.9694 40.2814C12.0708 40.0912 12.1152 39.882 12.1849 39.6791C12.223 39.565 12.2737 39.4572 12.3244 39.3494C12.3941 39.267 12.4639 39.1973 12.5463 39.1276C12.616 39.0705 12.6224 38.9564 12.578 38.8803C12.5907 38.8613 12.6034 38.8359 12.616 38.8169C12.6858 38.7345 12.7555 38.6521 12.8379 38.5824C12.876 38.5443 12.895 38.5 12.9013 38.4619C12.9584 38.3985 13.0091 38.3288 13.0725 38.2654C13.1042 38.2337 13.1232 38.1957 13.1295 38.164C13.307 38.3858 13.5099 38.5887 13.7064 38.7979C13.7254 38.8169 13.7508 38.8423 13.7698 38.8613C13.7445 38.9818 13.8079 39.0768 13.9156 39.1212C13.9537 39.1339 13.9917 39.1466 14.0297 39.1656C14.0488 39.1719 14.0678 39.1783 14.0868 39.1846C14.1565 39.2544 14.2263 39.3304 14.3023 39.4065C14.3023 39.4128 14.3023 39.4192 14.3023 39.4255C14.3023 39.527 14.3023 39.6284 14.3023 39.7298C14.3023 39.9517 14.5749 39.9897 14.6827 39.8503C14.7208 39.9834 14.7461 40.1165 14.7588 40.256C14.7524 40.3448 14.7461 40.4335 14.7461 40.5223C14.594 41.4415 14.6193 42.3924 14.651 43.3243C14.6574 43.5969 15.0821 43.5969 15.0694 43.3243C15.0441 42.4748 15.0187 41.619 15.1328 40.7758C15.1455 40.7505 15.1518 40.7188 15.1518 40.6871C15.1518 40.6491 15.1518 40.611 15.1582 40.573C15.1709 40.5032 15.1835 40.4398 15.1962 40.3701C15.2216 40.2814 15.2406 40.1863 15.2533 40.0848C15.2913 39.9327 15.3357 39.7742 15.3864 39.622C15.4308 39.4889 15.342 39.4002 15.2406 39.3748C15.2216 39.3114 15.2026 39.2544 15.1645 39.1973C15.0821 39.0705 14.9553 38.9818 14.8412 38.8867C14.6066 38.6965 14.3721 38.5063 14.1312 38.3288C13.9093 38.164 13.6367 38.0308 13.4402 37.828C13.4021 37.7899 13.3641 37.7773 13.3261 37.7709C13.2627 37.7392 13.1929 37.7265 13.1232 37.7709C13.0788 37.7963 13.0471 37.8406 13.0344 37.8914C12.9393 37.7963 12.7301 37.8026 12.6731 37.9738C12.6224 38.1196 12.5336 38.2464 12.4385 38.3668C12.4005 38.4175 12.3625 38.4683 12.3308 38.5126C12.3244 38.5253 12.3117 38.538 12.3054 38.5507C12.3054 38.557 12.2991 38.5633 12.2927 38.5697C11.9504 38.9564 11.6778 39.4002 11.4939 39.882C11.4813 39.8946 11.4622 39.9073 11.4496 39.9263C11.4115 39.9834 11.3862 40.0468 11.3735 40.1165C11.3418 40.1419 11.3228 40.1736 11.3101 40.218C11.2657 40.3765 11.2277 40.5413 11.1833 40.6998C11.0945 40.966 11.0121 41.2386 10.9551 41.5176C10.898 41.7902 10.86 42.0691 10.8219 42.348C10.7903 42.5129 10.7522 42.6777 10.7205 42.8489C10.524 43.7618 10.2894 44.6746 10.1626 45.6002C10.0358 46.4877 10.0739 47.3943 10.0675 48.2818C10.0675 48.7256 10.0168 49.1884 10.0802 49.6321C10.1246 49.9428 10.3021 50.2281 10.6191 50.3105C10.7205 50.3802 10.8219 50.4436 10.9297 50.5007C10.9551 50.5133 10.9868 50.5197 11.0121 50.5324C11.0185 50.5641 11.0312 50.5894 11.0565 50.6148C11.3038 50.9254 11.7095 50.9634 12.0772 51.0142C12.597 51.0839 13.1105 51.1473 13.6367 51.1727C14.0805 51.1917 14.6003 51.2234 15.0187 51.0522C15.1772 50.9888 15.2976 50.8937 15.3927 50.7796C15.4815 50.7986 15.5766 50.7733 15.6273 50.6845C15.7414 50.4943 15.7921 50.2851 15.7604 50.0632L15.7224 50.0569ZM13.903 50.7542C14.1312 50.7542 14.3594 50.7352 14.5876 50.7035C14.613 50.7035 14.6383 50.7035 14.6637 50.7035C14.6447 50.7035 14.6257 50.7162 14.6003 50.7162C14.3721 50.7542 14.1375 50.7606 13.903 50.7542Z" fill="#DB8347"/>
<path d="M29.644 22.1191C29.4475 21.8148 29.308 21.5042 29.2066 21.1555C29.2003 21.1238 29.1749 21.0984 29.1496 21.0794C29.1686 21.0224 29.1812 20.959 29.1876 20.8956C29.2193 20.6483 29.2066 20.3948 29.1876 20.1475C29.1749 19.9573 28.877 19.9573 28.8896 20.1475C28.9086 20.3821 28.9277 20.6293 28.8896 20.8639C28.8579 21.0731 28.7692 21.2633 28.6614 21.4471C28.4205 21.8465 28.1416 22.2205 27.8563 22.5882C27.7358 22.7404 27.9514 22.9496 28.0655 22.7974C28.3761 22.4044 28.6868 21.9923 28.9403 21.5612C28.9594 21.5295 28.972 21.4978 28.9911 21.4725C29.0925 21.7514 29.2193 22.0177 29.3841 22.2713C29.4285 22.341 29.5172 22.3664 29.587 22.322C29.6567 22.2839 29.6821 22.1888 29.6377 22.1191H29.644Z" fill="#32170D"/>
<path d="M23.2853 11.5947C22.5817 11.6264 21.897 11.842 21.2947 12.2097C21.2377 12.2414 21.225 12.2984 21.2313 12.3428C21.0855 12.3808 20.9334 12.4252 20.7876 12.4632C20.496 12.5457 20.2043 12.6281 19.9381 12.7675C19.6908 12.9007 19.4626 13.0782 19.2534 13.2684C18.2898 14.1369 17.3642 15.0561 16.445 15.9627C16.3119 16.0958 16.5147 16.2986 16.6542 16.1719C17.5481 15.2907 18.4483 14.4158 19.3675 13.5663C19.5894 13.3635 19.8176 13.1669 20.0902 13.0211C20.3565 12.8816 20.6481 12.8056 20.9334 12.7295C21.561 12.5583 22.1886 12.3872 22.8226 12.2223C22.9747 12.178 22.943 11.9751 22.8226 11.9434C22.9747 11.918 23.1332 11.899 23.2917 11.8927C23.4755 11.8863 23.4819 11.5947 23.2917 11.6011L23.2853 11.5947Z" fill="#BF9D75"/>
<path d="M36.3068 38.1639C35.6602 38.7788 35.0833 39.4698 34.5888 40.2179C34.5888 40.2242 34.5761 40.2305 34.5698 40.2369L34.5064 40.3383C34.462 40.4144 34.4874 40.4841 34.5444 40.5222C34.5191 40.5792 34.4937 40.6299 34.4683 40.687C34.1767 41.3717 34.0246 42.107 33.733 42.7917C33.6632 42.9629 33.9105 43.1087 33.9865 42.9375C34.2718 42.2655 34.4303 41.5555 34.7029 40.8772C35.0009 40.1481 35.5207 39.5459 35.9898 38.9183C36.0025 38.9056 36.0025 38.8929 36.0088 38.8802C36.1737 38.7027 36.3385 38.5379 36.5097 38.3731C36.6428 38.2463 36.4399 38.0371 36.3005 38.1639H36.3068Z" fill="#DB8347"/>
<path d="M42.5129 60.1814C42.1072 57.0687 41.5493 53.975 40.9597 50.8877C40.7822 50.4186 40.6364 49.9304 40.4843 49.4486C40.4843 49.4486 40.4843 49.4486 40.4716 49.4486C39.901 47.8257 39.5334 46.114 39.0959 44.4531C39.0769 44.3897 39.0515 44.3326 39.0135 44.2946C38.1323 40.6874 37.2955 37.0295 37.3526 33.2955C37.3843 31.2986 37.7076 29.3714 38.3098 27.4632C38.7663 26.0114 39.1149 25.5613 39.1593 24.1603C39.1974 24.1603 39.2417 24.1603 39.2861 24.1603C39.6665 24.1096 39.9581 23.8433 40.2053 23.5707C40.8646 23.0255 41.3655 22.3155 41.6761 21.4977C41.8853 20.9525 41.9931 20.3756 42.0375 19.7924C42.0882 19.1648 42.0945 18.4991 41.8409 17.9159C41.8156 17.8588 41.7712 17.8144 41.7205 17.7764C41.5049 17.1995 41.1943 16.6607 40.7442 16.2042C40.497 15.9506 40.2244 15.7287 39.9327 15.5259C38.9565 14.5052 37.7646 13.7762 36.5538 13.0598C35.3176 12.3308 33.9863 11.6334 32.6043 11.2277C32.6043 11.2277 32.5979 11.2277 32.5916 11.2277C31.7484 10.9297 30.8863 10.6888 29.986 10.5684C27.2664 10.1943 24.3756 10.3909 21.7637 11.253C18.8792 12.204 16.4322 15.1265 14.0422 16.9459C13.9534 17.0157 13.9027 17.0981 13.8837 17.1868C13.6681 17.1805 13.4462 17.2375 13.2624 17.3517C13.2561 17.3517 13.2497 17.3643 13.2434 17.3643C13.1927 17.3834 13.1419 17.4024 13.0912 17.4277C12.8376 17.5735 12.6411 17.8081 12.5397 18.0807C12.3812 18.347 12.2861 18.6703 12.2291 18.9746C12.1023 19.6466 12.1149 20.3566 12.3432 21.0096C12.6031 21.7449 13.0912 22.2267 13.7062 22.6769C14.4289 23.203 15.1579 23.7292 15.887 24.2554C15.8996 24.2617 15.906 24.2681 15.9187 24.2744C15.9947 25.1429 16.0835 24.9147 16.1659 25.7832C16.5272 29.7771 16.2293 33.7837 16.242 37.7903C16.242 39.7999 15.7665 42.2406 15.6841 44.2502C15.6651 44.3009 15.6587 44.3517 15.6587 44.4151C15.6587 44.5101 15.6587 44.6052 15.6651 44.7067C15.6651 44.8271 15.6587 44.9476 15.6524 45.068C15.6524 45.1378 15.6587 45.1948 15.6778 45.2455C15.6778 46.1014 15.6207 46.9635 15.5636 47.8194C15.5002 48.84 15.4369 49.8607 15.3735 50.8877C15.3735 50.9067 15.3735 50.9194 15.3735 50.9384C15.3735 50.9448 15.3735 50.9511 15.3735 50.9638C15.3735 51.0589 15.3608 51.154 15.3544 51.2427C15.3544 51.2998 15.3544 51.3505 15.3735 51.3949C15.3925 56.7961 15.8489 61.7727 15.8679 67.1739C15.887 72.7083 16.3941 78.2364 16.4131 83.7708C16.4258 86.9025 16.4385 90.0342 16.4512 93.1596C16.4512 93.1786 16.4512 93.1976 16.4512 93.223C16.4322 94.3134 16.4765 95.4038 16.597 96.4879C16.6604 97.0774 16.7048 97.667 16.5716 98.2566C16.4322 98.8525 16.0835 99.366 15.9313 99.9556C15.6904 100.932 15.608 102.105 16.1913 102.98C16.7682 103.848 17.9346 104.228 18.8539 103.664C18.9236 103.62 18.9743 103.569 19.006 103.506C19.4878 103.696 20.0584 103.645 20.5719 103.645C21.1741 103.645 21.77 103.582 22.1884 103.1C22.2011 103.087 22.2138 103.068 22.2265 103.056C23.1267 103.411 24.8257 103.531 24.9842 102.257C25.0539 101.68 24.9842 101.071 24.7559 100.532C24.5087 99.9429 24.1093 99.4357 23.7543 98.9032C23.3929 98.358 23.0569 97.7938 22.8858 97.1598C22.7146 96.5259 22.797 95.949 22.9745 95.3341C23.057 95.0551 23.114 94.7762 23.1584 94.4909C23.45 95.1692 23.9698 95.6891 24.4643 96.2153C25.0412 96.8239 25.6054 97.4324 26.1697 98.0537C27.2664 99.2582 28.2807 100.526 29.3648 101.743C29.8149 102.25 30.3411 102.815 31.0321 102.973C31.7991 103.151 32.6803 103.056 33.4601 103.03C33.9229 103.011 34.5822 103.03 34.9689 102.751C35.0386 102.802 35.121 102.84 35.2161 102.84C35.7043 102.859 36.1924 102.853 36.6742 102.827C37.0609 102.802 37.454 102.713 37.7076 102.434C37.8661 102.567 38.1006 102.605 38.2971 102.434C39.0199 101.769 39.2671 100.666 38.855 99.759C38.6268 99.2519 38.2084 98.8525 37.809 98.4721C37.4096 98.0918 36.9785 97.8128 36.4587 97.6353C35.9198 97.4451 35.381 97.3247 34.8738 97.0584C34.3857 96.7985 33.9356 96.4752 33.5045 96.1265C33.0734 95.7842 32.6486 95.4228 32.2049 95.0868C31.7548 94.7445 31.2032 94.4592 30.9116 93.9584C30.601 93.4322 30.5693 92.7856 30.7214 92.196C30.7975 91.898 30.9179 91.6128 31.0638 91.3338C31.1018 91.2578 31.1462 91.1753 31.1969 91.0929C31.2476 91.0739 31.2983 91.0422 31.349 90.9978C31.4505 90.9027 31.5456 90.8076 31.6407 90.7125C31.8372 90.6809 31.9323 90.5541 31.9513 90.4083C35.5395 86.7947 38.1196 82.3254 40.0786 77.6468C41.1943 74.9779 42.2467 72.2138 42.6524 69.3357C43.0835 66.2991 42.9123 63.2307 42.5193 60.2005L42.5129 60.1814ZM41.0675 18.3913C41.1182 18.5562 41.1626 18.7337 41.2006 18.9112C41.2197 19.2282 41.1816 19.5578 41.1563 19.8368C41.1119 20.3249 41.0041 20.8067 40.8266 21.2631C40.5857 21.8844 40.1927 22.4233 39.6982 22.8417C39.6665 22.8607 39.6348 22.8861 39.6031 22.9241C39.5017 23.0002 39.4002 23.0762 39.2988 23.146C39.2481 23.146 39.191 23.1523 39.134 23.1523C39.134 23.0953 39.134 23.0382 39.1276 22.9811C39.0325 21.8971 38.8297 20.8194 38.7789 19.729C38.7536 19.2155 38.7916 18.7464 39.2924 18.4738C39.825 18.1821 40.497 18.2962 41.0675 18.385V18.3913ZM15.8616 19.3866C15.8109 19.9001 15.7792 20.4073 15.7728 20.9208C15.7602 21.6752 15.7855 22.4296 15.8362 23.1777C15.4305 22.8797 15.0184 22.5881 14.6127 22.2901C14.1246 21.9351 13.5857 21.6118 13.2878 21.073C13.0532 20.6419 12.9771 20.141 12.9961 19.6529C13.0088 19.393 13.0469 19.1457 13.1102 18.8985C13.1166 18.8731 13.1293 18.8161 13.1483 18.7527C13.18 18.7337 13.218 18.7147 13.2497 18.6893C13.3195 18.6386 13.3828 18.5815 13.4272 18.5055C13.4336 18.5055 13.4399 18.4991 13.4526 18.4928C13.9724 18.068 15.196 17.675 15.7538 18.2645C16.0137 18.5435 15.8996 19.038 15.8616 19.3866ZM41.9297 68.0298C41.6634 70.9333 40.7188 73.6783 39.6538 76.3726C38.6902 78.8006 37.5681 81.1716 36.2241 83.4094C34.8104 85.7741 33.1368 87.9802 31.1842 89.9201C30.7848 90.0913 30.5249 90.497 30.322 90.871C30.0558 91.3719 29.8656 91.9107 29.7959 92.4749C29.6564 93.6731 30.1762 94.6557 31.1335 95.3467C32.0654 96.0251 32.9276 96.8175 33.8912 97.4515C34.3476 97.7558 34.8421 98.003 35.3619 98.1805C35.9262 98.3707 36.5157 98.4721 36.9849 98.8652C37.4286 99.2392 37.9992 99.7337 38.1513 100.311C38.2464 100.672 38.1894 101.04 38.0182 101.357C38.0055 101.147 37.9675 100.945 37.8978 100.761C37.7266 100.279 37.3906 99.9049 36.9025 99.7273C36.6869 99.6449 36.4143 99.8161 36.3636 100.032C36.3065 100.279 36.4397 100.482 36.6679 100.571C36.6806 100.577 36.6933 100.583 36.7059 100.59C36.744 100.609 36.7757 100.634 36.8137 100.659C36.7313 100.609 36.82 100.672 36.8391 100.685C36.8644 100.71 36.8898 100.735 36.9151 100.761C36.9215 100.773 36.9278 100.773 36.9278 100.78C36.9342 100.792 36.9468 100.805 36.9532 100.818C36.9722 100.849 36.9912 100.881 37.0102 100.913C37.0102 100.913 37.0356 100.976 37.0419 100.983C37.0546 101.014 37.0673 101.046 37.0736 101.078C37.0926 101.128 37.1053 101.185 37.1117 101.236C37.1117 101.249 37.118 101.293 37.1243 101.306C37.1307 101.376 37.137 101.452 37.137 101.521C37.137 101.559 37.137 101.598 37.1307 101.642C37.1307 101.655 37.1307 101.674 37.1243 101.693C37.118 101.724 37.1053 101.762 37.0926 101.794C37.118 101.699 37.08 101.8 37.0673 101.826C37.0546 101.838 37.0483 101.851 37.0356 101.857C37.0863 101.807 37.0483 101.845 37.0102 101.87C37.0102 101.87 37.0039 101.87 36.9975 101.876C36.9975 101.876 36.9912 101.876 36.9849 101.876C36.9468 101.889 36.9088 101.902 36.8644 101.908C36.8517 101.908 36.8391 101.908 36.8327 101.914C36.8327 101.914 36.8327 101.914 36.82 101.914C36.782 101.914 36.7503 101.914 36.7123 101.921C36.6172 101.921 36.5221 101.933 36.427 101.933C36.0466 101.946 35.6726 101.946 35.2922 101.933C35.2288 101.236 34.4554 100.71 33.999 100.266C33.5932 99.8732 32.9783 100.494 33.3777 100.887C33.5235 101.033 34.5568 101.902 34.3793 102.054C34.3096 102.111 34.1004 102.092 34.018 102.098C33.8531 102.105 33.6947 102.117 33.5298 102.124C33.1812 102.136 32.8325 102.143 32.4775 102.149C31.8245 102.149 31.1779 102.219 30.6517 101.775C30.1762 101.376 29.7832 100.875 29.3901 100.399C28.528 99.366 27.6468 98.3517 26.7402 97.3564C26.2901 96.8555 25.8273 96.3674 25.3709 95.8729C24.9334 95.4101 24.4263 94.96 24.103 94.4085C23.7606 93.8253 23.6972 93.1342 23.6972 92.4686C23.6972 91.7713 23.6846 91.0169 23.9255 90.3512C23.9762 90.2054 23.9508 90.0786 23.8811 89.9898C24.1664 89.5524 24.5087 89.172 24.8764 88.779C25.0349 88.6142 25.0539 88.3226 24.8764 88.1577C24.7052 87.9992 24.4263 87.9802 24.2551 88.1577C23.469 89.0072 22.6639 89.9518 22.4737 91.131C22.461 91.1944 22.4674 91.2578 22.4737 91.3211C22.4484 92.4496 22.5308 93.6541 22.2201 94.7508C22.068 95.277 21.9032 95.8032 21.8968 96.3547C21.8968 96.9126 22.0363 97.4641 22.2518 97.9713C22.6702 98.9729 23.4373 99.7527 23.8938 100.723C24.0206 100.989 24.0966 101.262 24.1157 101.553C24.1283 101.724 24.1917 102.105 24.0586 102.25C23.9318 102.39 23.6021 102.396 23.431 102.396C23.1457 102.403 22.8604 102.352 22.5942 102.238C22.6449 102.003 22.6512 101.762 22.6195 101.515C22.5878 101.281 22.2899 101.154 22.0807 101.211C21.8271 101.281 21.7447 101.515 21.7764 101.75C21.8081 101.984 21.7003 102.308 21.5164 102.504C21.2692 102.758 20.8888 102.739 20.5021 102.739C20.1091 102.739 19.5766 102.821 19.2406 102.618C18.9743 102.46 18.8539 102.174 18.8665 101.883C18.8792 101.648 18.6573 101.445 18.4291 101.445C18.1819 101.445 18.0044 101.648 17.9917 101.883C17.9727 102.257 18.0994 102.625 18.315 102.922C17.5162 103.316 16.7872 102.523 16.654 101.762C16.578 101.325 16.6414 100.83 16.7238 100.399C16.8189 99.8795 17.0724 99.4421 17.2563 98.9603C17.643 97.9523 17.5035 96.9316 17.4084 95.8856C17.3007 94.7381 17.288 93.578 17.345 92.4242C17.345 92.3481 17.3387 92.2848 17.3133 92.2277C17.2943 86.9722 16.7872 81.7104 16.7682 76.455C16.7491 70.9206 16.2927 65.8236 16.2737 60.2892L16.2356 50.9004C16.2356 50.8497 16.2293 50.8053 16.2103 50.7609C16.2737 49.7656 16.3371 48.7766 16.3941 47.7813C16.4575 46.748 16.5272 45.7083 16.4892 44.675C16.6857 40.3071 17.1105 35.5017 16.8823 31.1338C16.7681 28.8896 17.0724 26.6581 16.8569 24.4202C16.7491 23.2918 16.6414 23.2601 16.6033 22.1253C16.5653 21.0603 16.654 20.0206 16.7174 18.9556C16.7935 17.7384 16.0074 17.2185 15.0692 17.1615C16.635 16.2169 18.372 13.7508 20.3183 12.6858C22.5308 11.4686 25.1236 11.1833 27.6341 11.2087C28.8893 11.2213 30.1445 11.3355 31.3554 11.6715C31.628 11.7475 31.8942 11.8363 32.1668 11.925C32.2112 11.9694 32.2746 12.0138 32.357 12.0328C33.5742 12.3878 34.7343 12.9901 35.8374 13.624C36.6235 14.2453 37.416 15.0948 38.1894 15.4625C38.5444 15.6336 38.8994 15.8175 39.2354 16.033C39.2861 16.0838 39.3305 16.1281 39.3812 16.1788C39.4573 16.2613 39.546 16.2993 39.6348 16.312C40.0152 16.5973 40.3511 16.9333 40.6111 17.339C40.6364 17.377 40.6554 17.4151 40.6808 17.4531C39.9771 17.377 39.2671 17.4024 38.6648 17.8335C37.8978 18.385 37.8851 19.2218 37.9548 20.0903C38.1323 22.2648 38.5761 23.3171 38.0055 25.4789C37.7393 26.4869 37.3716 27.4695 37.1117 28.4839C36.8581 29.4665 36.6932 30.4808 36.5982 31.4951C36.3953 33.6315 36.5284 35.7806 36.8327 37.9044C37.1814 40.3641 37.7773 42.7795 38.3669 45.1885C38.3859 45.2646 38.4176 45.3153 38.462 45.366C38.8994 47.084 39.2988 48.8337 39.9644 50.4693C39.9771 50.4947 39.9835 50.5137 39.9961 50.539C40.5413 53.3538 41.0548 56.1812 41.4732 59.0213C41.9107 61.9882 42.1896 65.0058 41.917 68.0044L41.9297 68.0298Z" fill="#32170D"/>
<path d="M37.4416 36.8329C37.4416 36.8329 37.4669 36.7695 37.4733 36.7378C37.4796 36.6997 37.4733 36.6617 37.4606 36.6237C37.4606 36.6237 37.4479 36.611 37.4479 36.6046C37.4479 36.5793 37.4416 36.5603 37.4352 36.5349C37.4099 36.4525 37.3782 36.3637 37.3401 36.2877C37.2958 36.2116 37.2324 36.1355 37.1563 36.0975C37.0675 36.0531 36.9788 36.0468 36.8837 36.0468C36.6745 36.0214 36.4399 36.0214 36.2624 36.1545C36.2497 36.1609 36.2434 36.1672 36.2371 36.1799C36.1863 36.1926 36.1356 36.2116 36.0849 36.2306C36.1166 36.2179 36.1546 36.1989 36.1863 36.1862C36.0976 36.2243 36.0088 36.2433 35.9201 36.256C35.8567 36.3511 35.7933 36.4525 35.7362 36.5539C34.2655 37.7331 33.4604 39.4447 33.0546 41.2578C33.0546 41.2769 33.0483 41.3022 33.0419 41.3212C33.0419 41.4861 33.0419 41.6509 33.0356 41.8094C32.9976 42.2848 32.8518 42.7413 32.8137 43.2168C32.8518 43.2611 32.9088 43.2865 32.9659 43.2865C32.9849 43.6161 33.08 43.9331 33.2448 44.2247C33.2765 44.3262 33.3019 44.4213 33.3399 44.5227C33.3462 44.5481 33.3589 44.5734 33.3779 44.5924C33.3906 44.6178 33.4096 44.6305 33.435 44.6495C33.4667 44.6875 33.5111 44.7129 33.5745 44.7129C33.733 44.7129 33.7963 44.5671 33.771 44.4466C33.771 44.4403 33.7837 44.4339 33.7837 44.4276C33.8154 44.2755 33.8407 44.1233 33.8661 43.9648C33.8914 43.9648 33.9168 43.9585 33.9485 43.9521C34.0119 43.6542 34.0816 43.3562 34.126 43.0583C34.2338 42.3419 34.3669 41.6382 34.6332 40.9599C34.9058 40.2625 35.2608 39.6159 35.806 39.0897C36.2497 38.6586 36.7949 38.3036 37.1373 37.7711C37.1943 37.6824 37.2641 37.6126 37.3401 37.5619C37.4162 37.4098 37.4859 37.2576 37.562 37.1055C37.543 37.004 37.505 36.9089 37.4542 36.8202L37.4416 36.8329Z" fill="#DB8347"/>
<path d="M37.6379 55.6099C37.6379 54.7794 37.5808 53.9553 37.4224 53.1438C37.3716 52.8966 37.1751 52.8078 36.9849 52.8332C37.0737 51.6097 37.2385 50.3925 37.4984 49.188C37.6125 48.6364 36.7694 48.4019 36.6553 48.9534C36.5475 49.4479 36.4588 49.9487 36.3827 50.4495C36.3637 49.9297 36.3383 49.4035 36.332 48.8837C36.332 48.7062 36.2432 48.5857 36.1228 48.5223C36.2052 48.1039 36.2876 47.6792 36.3763 47.2544C36.4841 46.7473 36.2369 46.3542 35.8882 46.145C35.9262 45.7773 35.9579 45.4096 36.0023 45.0483C36.072 44.4904 35.1972 44.4967 35.1275 45.0483C35.1275 45.0863 35.1211 45.1244 35.1148 45.1561C35.1021 44.37 35.0704 43.5839 35.381 42.8421C35.4698 42.6202 35.2796 42.3603 35.0767 42.3033C34.8232 42.2335 34.6266 42.392 34.5379 42.6076C34.2336 43.3366 34.2209 44.1354 34.2336 44.9151C34.2336 44.9785 34.2336 45.0356 34.2336 45.099C34.2146 45.1434 34.2082 45.1941 34.2019 45.2448C34.1892 45.6696 34.1765 46.0943 34.1512 46.519C33.8469 47.5714 33.5553 48.6301 33.5172 49.7332C33.4792 50.8933 33.7264 52.0598 33.9166 53.2009C34.1892 54.8428 34.3604 56.694 35.2162 58.1647C35.2859 58.5451 35.4888 58.8938 35.8502 59.0269C35.9706 59.1283 36.1101 59.1347 36.2305 59.0776C36.9025 59.0459 37.3463 58.3866 37.5048 57.7907C37.6886 57.0934 37.6379 56.3199 37.6316 55.6036L37.6379 55.6099Z" fill="#BF9D75"/>
<path d="M38.3036 55.4586C38.2909 55.0528 38.2592 54.6408 38.2212 54.2351C38.1895 53.861 38.1768 53.4616 38.0627 53.1003C37.9359 52.6945 37.6823 52.3459 37.5428 51.9465C37.4034 51.5471 37.321 51.135 37.2449 50.7166C37.1878 50.4377 36.9469 50.3616 36.7377 50.4187C36.7504 50.387 36.7567 50.3553 36.7631 50.3236C36.8075 50.1017 36.7314 49.8418 36.6807 49.6199C36.5983 49.2712 36.4651 48.9225 36.2496 48.6373C36.0974 48.1301 35.9643 47.6229 35.8629 47.1031C35.7678 46.6466 35.698 46.1902 35.641 45.7274C35.5966 45.3407 35.5459 44.954 35.324 44.6243C35.305 44.599 35.2733 44.58 35.2416 44.5673C35.286 43.7812 35.267 43.0014 35.1719 42.2153C35.1528 42.0759 34.9817 42.0378 34.9119 42.1202C34.9119 42.1202 34.9056 42.1139 34.8993 42.1139C34.8295 42.0759 34.7408 42.0949 34.7027 42.1646C34.6393 42.2787 34.5886 42.4055 34.5569 42.5386C34.5506 42.5767 34.5569 42.6147 34.5696 42.6528C34.5886 42.6844 34.6203 42.7098 34.6584 42.7225C34.6964 42.7288 34.7344 42.7288 34.7725 42.7098C34.8042 42.6908 34.8295 42.6591 34.8422 42.6211C34.8612 42.5577 34.8802 42.4943 34.9056 42.4309C35.0007 43.3501 35.0007 44.2693 34.9056 45.1886C34.8866 45.3534 35.1655 45.3914 35.1909 45.2266C35.1972 45.1759 35.2099 45.1315 35.2226 45.0871C35.3177 45.3661 35.3367 45.6767 35.3811 45.9683C35.4381 46.3994 35.5079 46.8305 35.5966 47.2552C35.679 47.6483 35.7741 48.035 35.8819 48.4154C35.8122 48.4661 35.7805 48.5612 35.8565 48.6309C35.9072 48.6753 35.9453 48.7323 35.9897 48.7831C36.0911 49.1127 36.1989 49.4424 36.3193 49.772C36.3193 49.8037 36.3193 49.8354 36.3193 49.8671L36.2623 49.7403C36.2623 49.7403 36.2052 49.6833 36.1735 49.6706C36.1355 49.6579 36.0911 49.6706 36.0594 49.6833C36.0277 49.7023 36.0023 49.734 35.9897 49.772C35.9897 49.7847 35.9897 49.7974 35.9897 49.8101C35.9897 49.8354 35.996 49.8608 36.0087 49.8861C36.0531 49.9939 36.1038 50.0953 36.1482 50.2031C36.1608 50.2348 36.2052 50.2602 36.2369 50.2729C36.2369 50.2729 36.2369 50.2729 36.2432 50.2729C36.2432 50.2982 36.2432 50.3236 36.2432 50.3489C36.2432 50.3489 36.2432 50.3489 36.2432 50.3616C36.2432 50.3616 36.2432 50.3679 36.2432 50.3743C36.1798 50.3616 36.1165 50.3933 36.0974 50.4757C36.0784 50.6088 36.0911 50.7166 36.1545 50.8371C36.1925 50.9068 36.2749 50.9195 36.3383 50.8941C36.351 50.9005 36.37 50.9005 36.3891 50.9068C36.3891 50.9258 36.3891 50.9448 36.3891 50.9639C36.5158 51.6295 36.6807 52.2635 36.9913 52.8721C37.3146 53.4997 37.3336 54.14 37.3844 54.8373C37.4287 55.503 37.4668 56.1876 37.3146 56.8406C37.1815 57.4238 36.8518 58.2353 36.1418 58.2099C35.5776 58.1909 35.5776 59.0658 36.1418 59.0848C37.9422 59.1482 38.3289 56.8216 38.2909 55.4713L38.3036 55.4586Z" fill="#BF9D75"/>
<path d="M38.4811 50.4439C37.7964 51.4709 37.6506 52.7198 37.676 53.9243C37.7013 55.1415 37.9866 56.5869 37.4287 57.728C37.2068 58.1844 36.7948 58.6028 36.2749 58.6852C36.0594 58.7233 35.7741 58.6979 35.6346 58.5077C35.4571 58.2732 35.4001 57.8738 35.3113 57.5949C34.9056 56.3333 34.5125 55.0654 34.1956 53.7785C33.8786 52.4789 33.6504 51.1666 33.5743 49.8353C33.5996 49.8226 33.625 49.8036 33.644 49.7782C33.6504 49.7022 33.663 49.6261 33.6757 49.55C33.6757 49.5754 33.6694 49.6071 33.663 49.6324C33.6757 49.5373 33.6884 49.4486 33.6884 49.3535C33.6884 49.2964 33.7074 49.252 33.7328 49.2077C33.6947 47.2361 34.9056 45.423 34.5189 43.4134C34.4174 42.8808 33.606 43.1091 33.7074 43.6352C33.8976 44.6115 33.6123 45.5878 33.3524 46.5261C33.2066 47.0586 33.0608 47.6038 32.972 48.1553C32.9277 48.2441 32.8769 48.3265 32.8262 48.4089C32.8199 48.485 32.8072 48.5674 32.7819 48.6435C32.7438 48.8083 32.7121 48.9541 32.6994 49.1062C32.6931 49.195 32.6868 49.2837 32.6804 49.3725C32.7628 52.3711 33.6377 55.2556 34.5506 58.0957C34.7534 58.7169 34.95 59.3129 35.641 59.5094C36.1989 59.6679 36.8201 59.5094 37.2892 59.1924C38.4557 58.3873 38.6396 56.9419 38.6142 55.6296C38.5825 54.0384 38.2909 52.295 39.2355 50.8876C39.5525 50.4185 38.7917 49.9811 38.4811 50.4439Z" fill="#32170D"/>
<path d="M32.3128 55.9086C32.3001 54.7992 32.3571 53.639 32.0655 52.5613C31.7676 51.4519 31.1653 50.4629 30.5504 49.5057C29.7643 47.5721 28.9845 45.6386 28.1984 43.705C28.1097 43.4958 27.9195 43.35 27.6786 43.4134C27.4757 43.4641 27.2982 43.7177 27.387 43.9332L29.6185 49.4423C29.5931 49.5374 29.5995 49.6515 29.6755 49.7656C30.2968 50.7355 30.9498 51.7308 31.235 52.8593C31.3809 53.4362 31.4062 54.0257 31.4126 54.6153C31.4189 55.2303 31.4443 55.8452 31.4316 56.4601C31.4126 57.4744 31.2224 58.6029 30.3729 59.2622C30.189 59.4017 29.9798 59.5094 29.7579 59.5665C29.5044 59.6299 29.4029 59.6045 29.2381 59.408C28.8387 58.9199 28.4647 58.419 28.078 57.9246C27.9892 57.2209 27.9005 56.5235 27.8054 55.8262C27.7103 55.1415 27.4504 54.59 26.8544 54.2033C26.3409 53.8673 25.7387 53.6771 25.2125 53.3538C24.642 52.9987 24.1665 52.4662 23.5579 52.1873C23.5325 52.1746 23.5072 52.1683 23.4818 52.1556C23.0317 51.8576 22.664 51.5787 22.2646 51.1983C21.8462 50.7926 21.4976 50.3615 21.1679 49.9051C21.0411 49.7276 20.7939 49.6198 20.591 49.7529C20.4135 49.867 20.2994 50.1396 20.4389 50.3298C20.8129 50.8433 21.2059 51.3441 21.6624 51.7879C22.0681 52.1809 22.5182 52.5233 22.9937 52.8403C23.0254 52.8783 23.0634 52.9163 23.1141 52.9353C23.653 53.1826 24.0777 53.6517 24.5659 53.975C25.0604 54.3047 25.5992 54.5266 26.1254 54.7928C26.3409 54.9006 26.5628 55.0274 26.7086 55.2176C26.8735 55.4331 26.9115 55.7311 26.9495 55.991C27.051 56.6947 27.1334 57.4047 27.2285 58.1147C27.2475 58.2542 27.3045 58.381 27.406 58.4571C27.4123 58.4697 27.425 58.4888 27.4377 58.5014C27.7927 58.9515 28.1414 59.408 28.4964 59.8581C28.8197 60.2702 29.124 60.5238 29.6755 60.4604C30.5567 60.3589 31.2794 59.7567 31.7232 59.0086C32.2684 58.0767 32.3254 56.9609 32.3128 55.9086Z" fill="#32170D"/>
<path d="M24.3572 38.43C22.6772 37.9165 20.8577 37.9229 19.1778 38.3983C18.7847 38.4491 18.3917 38.5315 18.0113 38.6392C17.4978 38.7851 16.9716 38.9689 16.5215 39.2542C16.3757 39.3429 16.1728 39.4824 15.9953 39.6409C15.8559 39.7233 15.7227 39.8121 15.5959 39.9135C15.615 39.8818 15.6276 39.8501 15.634 39.8121C15.634 39.793 15.634 39.7804 15.634 39.7613C15.7101 39.7613 15.7861 39.736 15.8305 39.6663C16.2426 39.026 16.2933 38.2462 16.1919 37.5108C16.1475 37.2065 16.0841 36.8959 16.0017 36.5979C16.008 36.5092 16.0207 36.4268 16.027 36.338C16.027 36.2429 16.027 36.1351 15.9827 36.0464C15.4818 36.0971 14.9683 36.2302 14.4992 36.3951C14.0491 36.5535 13.5229 36.7754 13.1806 37.1304C12.889 37.5235 12.61 37.9229 12.3121 38.3096C12.0902 38.5949 11.8873 38.8928 11.7035 39.2035C11.6464 39.362 11.5767 39.5078 11.5006 39.6536C11.4182 39.8121 11.3611 39.9452 11.3041 40.11C11.2914 40.1481 11.2787 40.1798 11.2724 40.2178C11.2851 40.2178 11.3041 40.2178 11.3168 40.2178C11.2978 40.3573 11.2787 40.4967 11.247 40.6362C11.19 40.6552 11.1393 40.6933 11.1202 40.7757C10.8159 42.2845 10.4926 43.7869 10.22 45.3021C10.0298 46.3544 9.91574 47.4512 10.1249 48.5035C10.0615 48.8269 9.99815 49.1692 10.0996 49.4798C10.1059 49.8095 10.1947 50.1265 10.4609 50.38C10.7462 50.6526 11.0695 50.6843 11.4436 50.7414C11.4689 50.7414 11.5006 50.7414 11.526 50.7477C11.4436 50.7414 11.4499 50.7477 11.526 50.7667C11.5387 50.7667 11.5513 50.7794 11.5704 50.7858C11.6211 50.8111 11.6718 50.8365 11.7162 50.8682C12.1599 51.1154 12.6227 51.2802 13.1425 51.2485C13.5927 51.2232 13.9857 51.071 14.3471 50.8365C14.588 50.9569 14.7908 51.0901 15.0698 50.9633C15.4121 50.8111 15.4058 50.4434 15.4248 50.1138C15.4755 49.296 15.4565 48.4782 15.4248 47.6604C15.4121 47.3941 15.3994 47.1215 15.3867 46.8553C15.5896 45.4416 15.8622 44.0405 16.2109 42.6522C16.2236 42.6014 16.2299 42.5571 16.2299 42.5127C16.5279 42.3162 16.8068 42.0182 17.0414 41.8407C17.5232 41.473 18.0113 41.1243 18.5311 40.8074C19.4884 40.2241 20.5471 39.7423 21.6819 39.6789C24.7565 39.5078 26.3858 42.5064 28.0214 44.6301C28.2369 44.909 28.6744 44.9027 28.7885 44.5287C29.6887 41.5491 26.9183 39.2225 24.3572 38.4427V38.43Z" fill="#DB8347"/>
<path d="M29.4795 43.3748C29.4795 43.0451 29.4605 42.7155 29.2893 42.4302C29.2703 42.3605 29.2576 42.2971 29.2386 42.2273C29.2005 42.0625 29.1435 41.9104 29.0801 41.7582C29.042 41.6314 28.9913 41.511 28.9343 41.3969C28.706 40.9277 28.3827 40.5284 28.0087 40.167C27.9453 40.0846 27.8819 40.0212 27.7932 39.9768C27.2797 39.5394 26.6901 39.1844 26.1005 38.8928C23.8563 37.777 21.2381 37.5107 18.8037 38.0559C17.9669 38.2461 17.1491 38.5314 16.382 38.9181C16.363 38.7913 16.344 38.6582 16.325 38.5314C16.2869 37.3586 16.382 36.1794 16.4074 35.0066C16.4074 35.0003 16.4074 34.994 16.4074 34.9876C16.4074 34.9686 16.4201 34.9496 16.4201 34.9306C16.4391 34.8164 16.4454 34.8672 16.4454 34.7531C16.4454 34.7023 16.4454 34.6453 16.4391 34.5946C16.4327 34.5248 16.4264 34.4424 16.3884 34.379C16.3567 34.3283 16.2996 34.2966 16.2426 34.2839C16.2045 34.2269 16.1475 34.1888 16.0777 34.1888C16.0524 34.1825 16.0207 34.1825 15.9826 34.1888C15.4882 34.2903 15 34.4614 14.5055 34.5692C14.2329 34.6263 13.992 34.6326 13.7448 34.6833C13.6814 34.7087 13.6243 34.734 13.5609 34.7594C13.5419 34.7657 13.5166 34.7784 13.4975 34.7848C13.4975 34.7848 13.4785 34.7911 13.4722 34.7974C13.4342 34.8164 13.3961 34.8355 13.3517 34.8545C13.263 34.8989 13.1742 34.9496 13.0918 35.0066C11.5957 36.1604 10.2581 37.5424 9.67482 39.3746C9.39588 40.2494 9.1106 41.6695 10.1693 42.1513C10.201 42.1703 10.239 42.1703 10.2707 42.1703C10.2707 42.1893 10.2707 42.2083 10.2644 42.221C10.3151 42.2781 10.3405 42.3605 10.3088 42.4619C10.1693 42.874 10.1439 43.3114 10.0805 43.7425C10.0172 44.1926 9.94742 44.6427 9.88402 45.0991C9.76357 45.955 9.55437 46.7981 9.45294 47.6603C9.45294 47.6857 9.4466 47.7174 9.44026 47.7427C9.44026 47.7427 9.44026 47.7491 9.44026 47.7554C9.42758 47.8885 9.3832 48.0153 9.35784 48.1484C9.33249 48.2752 9.32615 48.402 9.33249 48.5352C9.33249 48.5859 9.34517 48.6429 9.35151 48.6936C9.33883 49.093 9.37686 49.4798 9.54803 49.8601C9.54803 50.2468 9.96644 50.4307 10.2707 50.5575C10.4039 50.6145 10.537 50.6652 10.6701 50.7223C10.7652 50.773 10.8666 50.8237 10.9681 50.8618C11.7288 51.1597 12.6037 51.2612 13.4151 51.3182C14.0681 51.3626 14.9176 51.4387 15.4438 50.9822C15.4628 49.5622 15.5262 48.1485 15.7227 46.7347C15.8495 45.8028 16.0143 44.8773 16.1601 43.9454C16.2299 43.5079 16.1475 42.7472 16.5152 42.4302C16.5532 42.3985 16.5912 42.3795 16.6293 42.3668C17.016 41.9294 17.4471 41.5237 17.8782 41.1433C18.2839 40.7883 18.734 40.5917 19.2285 40.4079C19.742 40.2177 20.2618 40.0402 20.807 39.9451C21.8911 39.7486 22.8864 39.9895 23.8246 40.5474C24.6171 41.0165 25.3524 41.5997 26.0308 42.2273C26.2146 42.4746 26.3921 42.7282 26.5823 42.9754C27.0197 43.5523 27.4762 44.1165 27.9453 44.6617C27.9516 44.6681 27.958 44.6744 27.9643 44.6807C28.0024 44.7505 28.0467 44.8202 28.0848 44.8899C28.1292 44.985 28.2116 45.0104 28.294 44.9914C28.351 45.1055 28.4081 45.2133 28.4651 45.3274C28.5539 45.4985 28.649 45.7394 28.8519 45.8092C29.0611 45.8789 29.2005 45.7648 29.2893 45.5936C29.34 45.5746 29.378 45.5302 29.3971 45.4668C29.6126 44.7948 29.5936 44.0848 29.4858 43.3875L29.4795 43.3748ZM16.0017 39.121C15.6783 39.2985 15.3677 39.495 15.0634 39.7042C15.0444 39.6915 15.0254 39.6852 15.0064 39.6789C15 39.6662 15.0064 39.6155 15.0127 39.5457C14.9937 39.5267 14.981 39.5077 14.9747 39.4823C14.9113 39.3302 14.9303 39.159 14.9113 39.0005C14.9113 39.0005 14.9113 39.0069 14.9113 39.0132C14.9113 39.0132 14.9113 39.0069 14.9113 39.0005C14.8922 38.9118 14.8796 38.8294 14.8542 38.7469C14.8415 38.6962 14.8225 38.6519 14.8035 38.6075C14.8035 38.5948 14.7845 38.5631 14.7845 38.5631C14.7718 38.5377 14.7591 38.5124 14.7464 38.487C14.6704 38.3349 14.5626 38.2018 14.4675 38.0623C14.4231 37.9925 14.3724 37.9292 14.3217 37.8658C14.309 37.8467 14.2963 37.8341 14.2836 37.815C14.2583 37.7833 14.2329 37.7516 14.2012 37.7199C14.1759 37.6882 14.1505 37.6629 14.1188 37.6312C14.1061 37.6185 14.0935 37.6058 14.0808 37.5932C14.0808 37.5932 14.0618 37.5805 14.0491 37.5678C14.0364 37.5615 14.0174 37.5488 14.011 37.5424C13.9033 37.5298 13.8209 37.4473 13.7828 37.3459C13.599 37.3459 13.599 37.0543 13.7828 37.0543C14.0681 36.8958 14.3661 36.7563 14.6704 36.6359C14.9303 36.5345 15.2092 36.4077 15.4818 36.3253C15.5008 36.3253 15.5135 36.3126 15.5325 36.3126C15.5642 36.3062 15.5959 36.2936 15.6213 36.2872C15.6213 36.2872 15.6276 36.2872 15.634 36.2872C15.6593 36.2745 15.6847 36.2619 15.7227 36.2619C15.8558 36.2619 15.9192 36.3823 15.9002 36.4837C15.9192 36.5218 15.9256 36.5662 15.9129 36.6105C15.9002 36.6422 15.9002 36.6739 15.8939 36.7056C15.9509 36.9592 15.9319 37.2318 15.9192 37.4854C15.9066 37.8277 15.9129 38.1764 15.9192 38.5187C15.9509 38.7216 15.9826 38.9245 16.0143 39.1273L16.0017 39.121ZM13.599 35.1651C13.954 35.0066 14.328 34.9242 14.7338 34.8164C15.0571 34.734 15.3487 34.715 15.6657 34.6706C15.691 34.658 15.7164 34.6516 15.7417 34.6453C15.7608 34.6516 15.7798 34.658 15.7988 34.658C15.8178 34.658 15.8368 34.658 15.8622 34.658C15.8622 34.658 15.8622 34.6643 15.8622 34.6706C15.9066 34.7087 15.9383 34.7594 15.9383 34.8164C15.9383 35.013 15.9256 35.2095 15.9066 35.406C15.9066 35.4314 15.9066 35.4567 15.9066 35.4821C15.9066 35.4821 15.9066 35.4948 15.9066 35.5011C15.9002 35.5709 15.9002 35.6406 15.9002 35.7103C15.8749 35.7103 15.8495 35.723 15.8305 35.7484C15.8051 35.7674 15.7798 35.7801 15.7544 35.7927C15.6847 35.8181 15.6213 35.8435 15.5516 35.8688C15.5072 35.8751 15.4691 35.8878 15.4311 35.9005C14.7718 36.1224 14.1252 36.3696 13.5356 36.712C13.3391 36.1794 13.1489 35.7293 12.9714 35.5328C13.1679 35.3743 13.4088 35.3109 13.6053 35.1588L13.599 35.1651ZM10.2961 41.5237C10.2961 41.5237 10.2454 41.5046 10.2137 41.5046C10.1947 41.5046 10.1756 41.5046 10.1566 41.511C10.1313 41.5173 10.1059 41.5363 10.0805 41.5554C9.6875 41.1179 9.82697 40.3572 9.98546 39.7866C9.98546 39.7359 9.98546 39.6789 10.0172 39.6218C10.0298 39.6028 10.0362 39.5838 10.0489 39.5647C10.2834 38.7913 10.6638 38.075 11.1329 37.422C11.1329 37.422 11.1392 37.4156 11.1456 37.4093C11.3041 37.1431 11.4689 36.8895 11.6844 36.6676C11.6971 36.6549 11.7161 36.6486 11.7288 36.6359C11.881 36.452 12.0648 36.2999 12.2994 36.2365C12.4262 36.1985 12.5276 36.2492 12.5847 36.3316C12.6671 36.3506 12.7431 36.4077 12.7812 36.5091C12.8763 36.769 12.6037 37.0289 12.4452 37.1938C12.2487 37.3903 12.0585 37.5551 11.9063 37.7833C11.4372 38.4934 11.0251 39.2541 10.7842 40.0719C10.7716 40.1226 10.7462 40.1607 10.7145 40.1924C10.5307 40.6298 10.4102 41.0799 10.3405 41.5617C10.3278 41.549 10.3088 41.5363 10.2898 41.53L10.2961 41.5237ZM15.4945 43.6094C15.4121 43.8122 15.3804 44.0468 15.336 44.2497C15.2726 44.5413 15.2156 44.8392 15.1712 45.1308C15.0697 45.7648 15.0064 46.3987 14.9683 47.039C14.9303 47.6793 14.9113 48.3196 14.8986 48.9599C14.8922 49.2642 14.8859 49.5748 14.8732 49.8855C14.8732 50.0186 14.8542 50.1517 14.8288 50.2785C14.8288 50.2785 14.8288 50.2912 14.8225 50.2975C14.8225 50.3039 14.8162 50.3166 14.8098 50.3229C14.8098 50.3166 14.8098 50.3166 14.8098 50.3229C14.7971 50.3546 14.7781 50.3863 14.7655 50.418C14.7401 50.4751 14.7084 50.5321 14.6767 50.5892C13.9477 50.9252 12.965 50.7603 12.2233 50.6335C11.7288 50.5448 11.209 50.4497 10.7399 50.2659C10.5497 50.0566 10.3848 49.8284 10.2771 49.5685C10.1439 49.2452 10.1503 48.8965 10.1439 48.5478C10.1439 48.3577 10.1439 48.1611 10.1503 47.9709C10.1566 47.9075 10.163 47.8378 10.1693 47.7744C10.2327 47.2419 10.3405 46.7157 10.3595 46.1832C10.6448 44.1165 11.0885 40.6171 11.5513 39.8627C11.7225 39.6725 11.8303 39.4189 11.9317 39.178C12.0965 38.7723 12.3121 38.3919 12.553 38.0306C12.6417 37.9292 12.7368 37.8277 12.8319 37.7326C13.4025 37.4917 14.1505 38.1701 14.9239 40.3952C14.9239 40.4269 14.943 40.4586 14.962 40.484C14.9873 40.5093 15.0317 40.5284 15.0634 40.5284C15.0634 40.5284 15.0634 40.5284 15.0697 40.5284C15.0444 40.6171 15.0254 40.6868 15.0381 40.7122C15.0634 40.7883 15.0761 40.8707 15.0824 40.9531C15.0697 41.2257 15.0824 41.5046 15.1078 41.7772C15.1078 41.8026 15.1205 41.8216 15.1268 41.8406C15.1648 42.4175 15.2853 42.9817 15.4882 43.5206C15.4882 43.5269 15.4945 43.5333 15.5008 43.5396C15.5008 43.5713 15.4945 43.603 15.4882 43.6347L15.4945 43.6094ZM28.649 44.6807C28.5222 44.6047 28.3954 44.5223 28.3003 44.4081C28.2496 44.3447 28.2052 44.275 28.1799 44.1989C27.6854 43.3431 27.0388 42.5697 26.3034 41.885C26.2083 41.7646 26.1132 41.6378 26.0181 41.5173C25.8469 41.3018 25.6631 41.0989 25.4729 40.9087C25.3144 40.7756 25.1623 40.6425 24.9911 40.5284C24.7502 40.3699 24.4839 40.2367 24.2304 40.1036C23.9451 39.9578 23.6535 39.8056 23.3555 39.6979C23.0575 39.5964 22.7532 39.5457 22.4426 39.4887C22.113 39.4316 21.7896 39.3619 21.46 39.3238C20.8133 39.2604 20.1984 39.3555 19.5708 39.5077C19.4694 39.533 19.3616 39.5647 19.2602 39.5964C18.5945 39.8881 18.0049 40.3445 17.4344 40.8073C16.737 41.3779 16.0714 41.9738 15.7227 42.7916C15.6086 42.3541 15.5452 41.9104 15.5389 41.4539C15.5389 41.2764 15.5325 41.0926 15.5135 40.9151C15.5325 40.5854 15.6086 40.2621 15.8115 39.9958C15.9446 39.8247 16.1221 39.7106 16.306 39.6028C16.3377 39.5964 16.363 39.5774 16.3884 39.5584C16.6293 39.4316 16.8702 39.3048 17.054 39.102C17.054 39.0956 17.0604 39.0893 17.0667 39.0829C18.5311 38.449 20.1414 38.151 21.7453 38.2144C22.9054 38.2651 24.0528 38.4997 25.1369 38.9245C25.9547 39.2414 26.7788 39.6725 27.4572 40.2431C27.4762 40.2811 27.5079 40.3065 27.5523 40.3255C27.622 40.3889 27.6981 40.4523 27.7678 40.5157C27.8122 40.5791 27.8502 40.6361 27.8629 40.6551C27.9199 40.7312 27.9833 40.8136 28.0404 40.8897C28.1672 41.0609 28.3003 41.2257 28.4208 41.4032C28.4842 41.492 28.5349 41.5807 28.5793 41.6758C28.5793 41.6758 28.5793 41.6885 28.5856 41.6948C28.5856 41.7012 28.5856 41.7075 28.5919 41.7138C28.6363 41.8153 28.6744 41.923 28.706 42.0308C28.7187 42.0308 28.7251 42.0435 28.7314 42.0562C28.7885 42.221 28.8328 42.3922 28.8709 42.5697C28.8836 42.6267 28.8962 42.6838 28.9089 42.7345C28.9406 42.9817 28.9533 43.2353 28.9723 43.4826C28.9913 43.8693 29.0484 44.2813 28.8392 44.6237C28.8011 44.6871 28.706 44.7188 28.6427 44.6744L28.649 44.6807Z" fill="#1B100D"/>
<path d="M36.6683 35.7109C36.009 35.6539 35.4511 36.0469 35.0454 36.5224C34.0818 37.6635 33.4225 39.1279 32.9978 40.548C32.592 41.9046 32.0151 44.1552 33.619 44.9856C33.7648 45.0617 33.8916 44.9603 33.9297 44.8398C33.936 44.8398 33.9423 44.8398 33.9487 44.8398C34.0755 44.618 34.1959 44.3897 34.2783 44.1552C34.4051 43.7748 34.3861 43.3754 34.4685 42.9887C34.5509 42.5766 34.7538 42.1963 34.8933 41.8032C35.0327 41.4228 35.1659 41.0425 35.3307 40.6684C35.8696 39.4386 36.9536 38.5764 37.6573 37.448C37.7017 37.2324 37.7461 37.0232 37.7904 36.8077C37.7904 36.7823 37.7904 36.7569 37.7904 36.7316C37.7397 36.1357 37.2389 35.7553 36.6747 35.7046L36.6683 35.7109ZM37.3467 37.0486C37.3086 37.2197 37.2262 37.3719 37.1311 37.5114C37.1311 37.5874 37.0994 37.6572 37.036 37.7269C36.662 38.139 36.2563 38.5193 35.8886 38.9377C35.5145 39.3625 35.28 39.838 35.001 40.3261C34.6967 40.865 34.4749 41.3785 34.2974 41.9744C34.2086 42.2723 34.1262 42.5703 34.0311 42.8619C33.9931 42.9824 33.9487 43.1028 33.917 43.2233C33.9106 43.2993 33.9043 43.3754 33.9043 43.4451C33.9043 43.5276 33.8789 43.5909 33.8409 43.6417C33.8409 43.6543 33.8409 43.667 33.8409 43.6797C33.8409 43.7177 33.8346 43.7558 33.8219 43.7875C33.8219 43.7875 33.8219 43.7875 33.8219 43.7938C33.8219 43.7938 33.8219 43.7938 33.8219 43.8002C33.8029 43.9586 33.8092 44.1235 33.7775 44.282C33.7712 44.3137 33.7522 44.339 33.7268 44.358C33.7205 44.4087 33.6888 44.4595 33.6254 44.4721C33.6127 44.4721 33.6063 44.4785 33.5937 44.4785C33.562 44.4785 33.543 44.4721 33.5239 44.4595C33.5049 44.4531 33.4859 44.4404 33.4732 44.4278C33.3971 44.3517 33.3464 44.2629 33.3021 44.1678C33.2894 44.1425 33.283 44.1108 33.2704 44.0854C32.7252 43.2296 33.0802 41.8539 33.3211 40.96C33.6697 39.6795 34.2149 38.4559 34.9567 37.3529C35.2863 36.8647 35.7047 36.2688 36.3197 36.142C36.9029 36.0216 37.4988 36.3893 37.353 37.0422L37.3467 37.0486Z" fill="#1B100D"/>
</g>
</svg>
