<svg width="42" height="42" viewBox="0 0 42 42" fill="none" xmlns="http://www.w3.org/2000/svg">
<circle cx="21" cy="21" r="21" fill="#E77924"/>
<path fill-rule="evenodd" clip-rule="evenodd" d="M10.9031 10.9539C15.2646 6.53543 21.8938 5.82153 26.9896 8.8054C27.6976 9.21996 27.9398 10.1375 27.5306 10.8547C27.1213 11.572 26.2157 11.8173 25.5077 11.4028C21.5435 9.08153 16.3867 9.64131 12.9971 13.0753C8.94942 17.1758 8.94942 23.8242 12.9971 27.9247C16.3867 31.3587 21.5435 31.9185 25.5077 29.5972C26.2157 29.1827 27.1213 29.428 27.5306 30.1453C27.9398 30.8625 27.6976 31.78 26.9896 32.1946C21.8938 35.1785 15.2646 34.4646 10.9031 30.0461C5.69897 24.7739 5.69897 16.2261 10.9031 10.9539ZM29.6437 14.9393C30.2219 14.3535 31.1594 14.3535 31.7376 14.9393L34.5379 17.7761C34.8022 18.0438 35.0595 18.3044 35.2596 18.5432C35.4794 18.8055 35.7157 19.1384 35.8551 19.5729C36.0483 20.1755 36.0483 20.8245 35.8551 21.4271C35.7157 21.8616 35.4794 22.1945 35.2596 22.4568C35.0595 22.6956 34.8021 22.9563 34.5378 23.2239L31.7376 26.0607C31.1594 26.6465 30.2219 26.6465 29.6437 26.0607C29.0654 25.4749 29.0654 24.5252 29.6437 23.9394L31.558 22H20.326C19.5082 22 18.8453 21.3284 18.8453 20.5C18.8453 19.6716 19.5082 19 20.326 19H31.558L29.6437 17.0606C29.0654 16.4748 29.0654 15.5251 29.6437 14.9393Z" fill="white"/>
</svg>
