<svg width="99" height="50" viewBox="0 0 99 50" fill="none" xmlns="http://www.w3.org/2000/svg">
<path d="M18.2245 21.9442C17.6829 22.3798 17.0132 22.7537 16.2155 23.0732C15.4177 23.3926 14.5796 23.6685 13.705 23.8972C12.8048 24.1259 11.9118 24.3002 11.0226 24.4127C10.1333 24.5252 9.32818 24.5833 8.61091 24.5833H5.05749C3.30823 24.5833 2.02739 24.2457 1.21497 23.5669C0.406207 22.8917 0 21.8643 0 20.4849V1.68436H18.2209V21.9442H18.2245ZM12.7023 6.05142H5.482V19.2252C5.482 19.6064 5.56617 19.8714 5.73451 20.0093C5.90285 20.1509 6.17732 20.2199 6.56523 20.2199H8.4938C9.1635 20.2199 9.87711 20.1509 10.6383 20.0093C11.3958 19.8678 12.0875 19.6209 12.7023 19.2615V6.05142ZM23.2015 31.2882V0.384766H28.8006V31.2882H23.2015Z" fill="#E67925"/>
<path d="M62.7721 31.2882H57.173V14.9344H52.8475C52.3827 17.2577 51.3031 19.1599 49.6051 20.641C47.9071 22.1221 45.7296 22.8626 43.0801 22.8626C41.4846 22.8626 40.0683 22.594 38.8314 22.0604C37.5945 21.5231 36.5405 20.7825 35.6659 19.8387C34.8169 18.8949 34.1655 17.784 33.7153 16.5062C33.2652 15.2284 33.0383 13.8526 33.0383 12.3715C33.0383 10.8904 33.2616 9.54362 33.7153 8.25492C34.1655 6.96622 34.8278 5.84813 35.7025 4.9043C36.5515 3.96046 37.6018 3.21265 38.8497 2.6645C40.0976 2.11634 41.5065 1.84045 43.0765 1.84045C44.4671 1.84045 45.726 2.06552 46.8604 2.51203C47.9912 2.95854 48.983 3.56477 49.832 4.33073C50.681 5.1221 51.369 6.04779 51.896 7.10779C52.4229 8.1678 52.7779 9.31129 52.9572 10.5346H57.1657V0.384766H62.7648V31.2882H62.7721ZM47.3508 10.0918C47.1569 9.36574 46.8678 8.70869 46.4835 8.1206C46.0956 7.55793 45.6199 7.10416 45.0563 6.7593C44.4891 6.41443 43.834 6.24382 43.0874 6.24382C42.3409 6.24382 41.6456 6.41443 41.0783 6.7593C40.5111 7.10416 40.0354 7.55793 39.6511 8.1206C39.2888 8.70869 39.0217 9.36574 38.8387 10.0918C38.6594 10.8178 38.5679 11.5801 38.5679 12.3715C38.5679 13.1629 38.6594 13.9288 38.8387 14.6694C39.018 15.4099 39.2888 16.0597 39.6511 16.6224C40.0354 17.1851 40.5111 17.6316 41.0783 17.9619C41.6456 18.2923 42.3153 18.4593 43.0874 18.4593C43.8596 18.4593 44.4891 18.2923 45.0563 17.9619C45.6235 17.6316 46.0993 17.1851 46.4835 16.6224C46.8678 16.0597 47.1605 15.4099 47.3508 14.6694C47.5448 13.9288 47.6399 13.1629 47.6399 12.3715C47.6399 11.5801 47.5448 10.8214 47.3508 10.0918Z" fill="#E67925"/>
<path d="M68.2944 0.537261H79.7598C81.0223 0.537261 81.864 0.824043 82.2885 1.39761C82.713 1.97117 82.9253 2.78432 82.9253 3.8298C82.9253 4.49412 82.885 5.15117 82.8082 5.80097C82.7313 6.45077 82.6288 7.057 82.5008 7.61967H85.2015V0H90.3358V17.7696H85.2015V11.9105H80.7222C79.6427 13.6711 78.2008 15.2103 76.3966 16.5244C74.5961 17.8385 72.4443 19.0074 69.9485 20.0275L68.0565 15.969C69.5752 15.4063 70.9512 14.7384 72.1882 13.9579C73.4251 13.1811 74.4644 12.2808 75.3134 11.2571H68.2871V7.08241H77.3993C77.3993 6.98077 77.414 6.87186 77.4396 6.7557C77.4652 6.63953 77.4908 6.51974 77.5165 6.39268C77.5421 6.29104 77.5604 6.17488 77.575 6.04782C77.5896 5.92077 77.5933 5.79371 77.5933 5.66665C77.5933 5.38713 77.5274 5.17659 77.3993 5.03501C77.2713 4.89343 77.0773 4.82446 76.8211 4.82446H68.2907V0.537261H68.2944ZM88.0596 21.7155C88.0596 22.1766 88.0157 22.6339 87.9242 23.095C87.8327 23.556 87.712 24.0134 87.5582 24.4744H88.023C88.5902 24.4744 89.1172 24.5434 89.6039 24.685C90.0943 24.8266 90.5701 25.0117 91.0312 25.2404C92.3449 26.0064 93.6038 26.7469 94.8151 27.462C96.0264 28.1772 97.2853 28.9431 98.5991 29.7599L96.1655 33.8184C94.6724 32.8238 93.3586 31.9852 92.2278 31.31C91.0934 30.6348 89.937 29.9487 88.7513 29.2626C88.184 28.9577 87.6314 28.689 87.0898 28.4567C86.5482 28.228 85.9554 28.0755 85.3149 27.9957C84.0268 29.4259 82.3617 30.6711 80.316 31.7311C78.2703 32.7911 75.9355 33.4845 73.308 33.8184L72.4187 29.6075C74.2961 29.2481 75.8733 28.758 77.1468 28.1336C78.4204 27.5092 79.456 26.8268 80.2538 26.0862C81.0516 25.3457 81.6261 24.5724 81.9701 23.7702C82.3178 22.9643 82.4898 22.2056 82.4898 21.4905V19.2688H88.0486V21.7192L88.0596 21.7155ZM98.0575 20.2235H92.9231V0H98.0575V20.2199V20.2235Z" fill="#E67925"/>
<path d="M4.19744 39.376L7.09946 45.6452L9.98684 39.376H11.9886V48.9813H9.99782V43.3764L7.75086 48.1174H6.41879L4.17182 43.3909V48.9813H2.18103V39.376H4.19744Z" fill="#E67925"/>
<path d="M24.8739 40.9188H21.0606C20.7971 40.9188 20.6215 40.9696 20.5373 41.0749C20.4495 41.1802 20.4092 41.3326 20.4092 41.5395V43.3764H24.7678V44.9301H20.4092V46.8214C20.4092 47.0392 20.4531 47.1953 20.5373 47.2933C20.6251 47.3913 20.7971 47.4422 21.0606 47.4422H24.969V48.9813H20.38C19.681 48.9813 19.176 48.847 18.8612 48.5748C18.5465 48.3061 18.3928 47.8197 18.3928 47.1154V41.2382C18.3928 40.5449 18.5502 40.0621 18.8612 39.7862C19.176 39.5103 19.681 39.376 20.38 39.376H24.8739V40.9152V40.9188Z" fill="#E67925"/>
<path d="M34.4985 39.3759V45.3475C34.4985 45.7432 34.5204 46.0845 34.568 46.3676C34.6156 46.6508 34.6997 46.8795 34.8278 47.0501C34.9559 47.2316 35.1352 47.3623 35.3658 47.4421C35.5963 47.522 35.9001 47.5619 36.2697 47.5619C36.6393 47.5619 36.9321 47.522 37.1699 47.4421C37.4041 47.3623 37.5871 47.2316 37.7152 47.0501C37.8433 46.8686 37.9311 46.6399 37.9823 46.3603C38.0336 46.0808 38.0555 45.7432 38.0555 45.3475V39.3759H40.0866V45.4818C40.0866 46.825 39.7682 47.7725 39.1278 48.3315C38.4874 48.8906 37.5359 49.1701 36.2733 49.1701C35.5305 49.1701 34.912 49.0829 34.4289 48.9123C33.9422 48.7417 33.5543 48.4949 33.2652 48.1682C32.9761 47.8451 32.7712 47.4566 32.6541 47.0065C32.5369 46.5564 32.4784 46.0518 32.4784 45.4927V39.3723H34.5058L34.4985 39.3759Z" fill="#E67925"/>
<path d="M51.9729 47.1665C52.2254 46.9087 52.3535 46.6002 52.3535 46.2408C52.3535 46.0774 52.3205 45.9431 52.2583 45.8342C52.1961 45.7253 52.1193 45.6309 52.0278 45.551C51.9363 45.4784 51.8338 45.4167 51.7204 45.3695C51.6069 45.3187 51.5008 45.2715 51.402 45.228C51.2117 45.1663 51.047 45.1045 50.9043 45.0537C50.7652 44.9993 50.6189 44.9448 50.4761 44.8904C50.3298 44.8359 50.1724 44.7815 50.0004 44.7197C49.8284 44.6617 49.6235 44.5854 49.3892 44.4983C48.683 44.2551 48.1523 43.9502 47.801 43.5871C47.4497 43.2241 47.2777 42.676 47.2777 41.9463C47.2777 41.4526 47.3728 41.0315 47.5631 40.683C47.7534 40.3382 48.0133 40.0514 48.339 39.8263C48.6647 39.6012 49.0526 39.4379 49.4954 39.3326C49.9382 39.2273 50.4176 39.1765 50.9263 39.1765C51.38 39.1765 51.8741 39.2419 52.412 39.3725C52.9463 39.5032 53.4879 39.6884 54.0332 39.9316L53.5684 41.5107C52.9427 41.2784 52.4376 41.1005 52.0571 40.9771C51.6765 40.8573 51.2995 40.7956 50.9263 40.7956C50.381 40.7956 49.9858 40.9081 49.7406 41.1332C49.4954 41.3582 49.3746 41.6341 49.3746 41.9572C49.3746 42.2004 49.4551 42.3928 49.6125 42.5308C49.7698 42.6687 50.0004 42.7958 50.3005 42.901C50.5091 42.9809 50.6957 43.0535 50.8604 43.1116C51.0251 43.1697 51.1788 43.2278 51.3251 43.2822C51.4715 43.3367 51.6142 43.3911 51.7606 43.4456C51.907 43.5 52.068 43.5545 52.251 43.6089C52.5584 43.7178 52.8512 43.8376 53.122 43.9719C53.3928 44.1062 53.6307 44.2732 53.8283 44.4729C54.0369 44.6726 54.2016 44.9085 54.3187 45.188C54.4358 45.4676 54.4943 45.8052 54.4943 46.2008C54.4943 47.1302 54.1869 47.8598 53.5758 48.3898C52.9646 48.9198 52.0022 49.1885 50.6957 49.1885C50.1321 49.1885 49.5649 49.1086 48.994 48.9452C48.4231 48.7819 47.8413 48.5532 47.2521 48.2555L47.9071 46.6474C48.1596 46.7744 48.4048 46.8869 48.6354 46.9922C48.8659 47.0975 49.0928 47.1882 49.3087 47.2681C49.5283 47.348 49.7479 47.4169 49.9711 47.4714C50.1943 47.5258 50.4359 47.5513 50.6994 47.5513C51.2995 47.5513 51.724 47.4242 51.9802 47.1665H51.9729Z" fill="#E67925"/>
<path d="M63.5663 45.834V48.9813H61.5389V39.376H63.5663V43.1731L66.8489 39.376H69.1654L65.6376 43.4563C66.1097 43.5652 66.494 43.7684 66.7867 44.0698C67.0832 44.3711 67.343 44.7377 67.5699 45.1697L69.396 48.9777H67.3393L66.0585 46.2079C65.9487 46.0264 65.8535 45.8594 65.773 45.6997C65.6925 45.5436 65.601 45.4056 65.5022 45.2895C65.3924 45.1624 65.2607 45.0572 65.0997 44.9737C64.9423 44.8865 64.7374 44.8176 64.4922 44.7631L63.5663 45.8304V45.834Z" fill="#E67925"/>
<path d="M83.2546 40.9188H79.4414C79.1779 40.9188 79.0022 40.9696 78.9181 41.0749C78.8302 41.1802 78.79 41.3326 78.79 41.5395V43.3764H83.1485V44.9301H78.79V46.8214C78.79 47.0392 78.8339 47.1953 78.9181 47.2933C79.0059 47.3913 79.1779 47.4422 79.4414 47.4422H83.3498V48.9813H78.7607C78.0617 48.9813 77.5567 48.847 77.242 48.5748C76.9273 48.3061 76.7736 47.8197 76.7736 47.1154V41.2382C76.7736 40.5449 76.9309 40.0621 77.242 39.7862C77.5567 39.5103 78.0617 39.376 78.7607 39.376H83.2546V40.9152V40.9188Z" fill="#E67925"/>
<path d="M98.449 40.9297H95.6824V48.9813H93.6258V40.9297H90.8628V39.376H98.449V40.9297Z" fill="#E67925"/>
<path d="M4.19373 2.47921C4.27058 2.82408 4.46088 3.15079 4.6036 3.47024C4.67679 3.62997 4.77194 3.79696 4.98054 3.77155C4.99151 3.77155 5.00249 3.76429 5.01347 3.76066C5.04275 3.76066 5.06837 3.74976 5.09032 3.73887C5.20743 3.68805 5.30623 3.59004 5.37943 3.49202C5.56606 3.24881 5.64657 2.92572 5.72342 2.63168C5.82223 2.25415 5.89176 1.86572 5.93201 1.47729H4.23399C4.16811 1.80764 4.1242 2.14524 4.19739 2.47921H4.19373Z" fill="#704633"/>
<path d="M8.62187 2.88233L8.64748 2.94767C8.6548 3.08562 8.66213 3.21993 8.66945 3.35788C8.66945 3.39055 8.68042 3.42322 8.6914 3.45226C8.69872 3.5648 8.69872 3.67733 8.7097 3.78986C8.74996 4.33802 8.77923 4.91884 9.0171 5.42343C9.07565 5.54685 9.24399 5.56501 9.35012 5.51055C9.47821 5.44521 9.55871 5.34357 9.61727 5.23103C9.71973 5.12213 9.75267 4.94788 9.78195 4.80631C9.82952 4.58487 9.85148 4.35617 9.87343 4.1311C9.90271 4.02219 9.93199 3.91329 9.96127 3.80802C9.9759 3.77897 9.99054 3.7463 10.0015 3.71726C10.1223 3.4087 10.2248 3.09288 10.3162 2.77342C10.4077 2.45397 10.4919 2.11274 10.4663 1.77513C10.4663 1.76424 10.4663 1.75698 10.4626 1.74609H8.45719C8.45353 1.98931 8.44987 2.23253 8.49013 2.46849C8.51208 2.61007 8.57063 2.74438 8.62553 2.8787L8.62187 2.88233Z" fill="#704633"/>
<path d="M11.7397 3.41575C11.7507 3.63719 11.7214 3.93849 11.9483 4.06917C12.2411 4.23253 12.4314 3.88404 12.5375 3.67349C12.6509 3.44116 12.7571 3.20883 12.8705 2.97287C12.9803 2.74417 13.0901 2.51184 13.1633 2.26862C13.2145 2.10164 13.2511 1.89472 13.1706 1.74951H11.7324C11.7251 1.77129 11.7141 1.78581 11.7141 1.81122C11.7104 2.34486 11.7141 2.88212 11.7397 3.41575Z" fill="#704633"/>
<path d="M38.7838 3.48487C38.8753 3.89145 39.0985 4.27987 39.2705 4.65741C39.3584 4.84981 39.4682 5.0422 39.7134 5.01316C39.728 5.01316 39.739 5.0059 39.7536 5.00227C39.7865 4.99864 39.8195 4.99138 39.8451 4.97686C39.9805 4.91515 40.1013 4.79898 40.1854 4.68645C40.405 4.39604 40.5002 4.01487 40.5916 3.67001C40.7161 3.19809 40.8002 2.71891 40.8478 2.23247C40.8515 2.19617 40.8405 2.15987 40.8222 2.1272C40.1452 2.26514 39.5011 2.46117 38.8973 2.72617C38.846 2.74795 38.8021 2.77699 38.7546 2.79877C38.7326 3.02747 38.7363 3.25617 38.7875 3.48487H38.7838Z" fill="#704633"/>
<path d="M42.3116 3.02378C42.3336 3.16536 42.3921 3.29967 42.447 3.43399L42.4726 3.49933C42.4799 3.63728 42.4873 3.77159 42.4946 3.90954C42.4946 3.94221 42.5056 3.97488 42.5166 4.00392C42.5239 4.11646 42.5239 4.22899 42.5348 4.34152C42.5751 4.88968 42.6044 5.4705 42.8422 5.97509C42.9008 6.09851 43.0691 6.11667 43.1753 6.06221C43.3033 5.99687 43.3839 5.89523 43.4424 5.78269C43.5449 5.67379 43.5778 5.49954 43.6071 5.35797C43.6547 5.13653 43.6766 4.90783 43.6986 4.68276C43.7279 4.57385 43.7571 4.46495 43.7864 4.35968C43.8011 4.33063 43.8157 4.29796 43.8267 4.26892C43.9474 3.96036 44.0499 3.64454 44.1414 3.32508C44.2329 3.00563 44.317 2.6644 44.2914 2.32679C44.2804 2.16344 44.2292 2.00371 44.0536 1.94926C44.0096 1.93474 43.9584 1.93474 43.9108 1.93111C43.651 1.91296 43.3912 1.89844 43.124 1.89844C42.8386 1.89844 42.5678 1.91659 42.2933 1.93474C42.2897 1.95652 42.2823 1.97467 42.2823 2.00008C42.2823 2.33405 42.2567 2.68618 42.3116 3.02015V3.02378Z" fill="#704633"/>
<path d="M45.5649 3.9677C45.5759 4.18914 45.5466 4.49044 45.7735 4.62113C46.0663 4.78449 46.2565 4.43599 46.3627 4.22544C46.4761 3.99311 46.5823 3.76079 46.6957 3.52483C46.8055 3.29613 46.9153 3.0638 46.9885 2.82058C47.0068 2.75887 47.0214 2.69352 47.0324 2.62818C46.9885 2.61003 46.9482 2.58825 46.9043 2.5701C46.4981 2.41037 46.0663 2.28695 45.6271 2.1853C45.5759 2.2216 45.5356 2.27606 45.5356 2.35955C45.532 2.89318 45.5356 3.43044 45.5612 3.96407L45.5649 3.9677Z" fill="#704633"/>
<path d="M71.1818 1.77874C71.2733 2.18531 71.4965 2.57374 71.6685 2.95127C71.7564 3.14367 71.8662 3.33607 72.1113 3.30703C72.126 3.30703 72.137 3.29977 72.1516 3.29614C72.1845 3.29251 72.2175 3.28525 72.2431 3.27073C72.3785 3.20901 72.4993 3.09285 72.5834 2.98032C72.803 2.6899 72.8981 2.30874 72.9896 1.96388C73.1067 1.51737 73.1873 1.0636 73.2348 0.606201H71.2257C71.1489 0.994627 71.0976 1.39031 71.1818 1.78237V1.77874Z" fill="#704633"/>
<path d="M74.845 1.72785L74.8706 1.79319C74.878 1.93114 74.8853 2.06546 74.8926 2.2034C74.8926 2.23607 74.9036 2.26874 74.9145 2.29778C74.9219 2.41032 74.9219 2.52285 74.9328 2.63539C74.9731 3.18354 75.0024 3.76436 75.2402 4.26895C75.2988 4.39238 75.4671 4.41053 75.5733 4.35608C75.7013 4.29073 75.7819 4.18909 75.8404 4.07656C75.9429 3.96765 75.9758 3.7934 76.0051 3.65183C76.0527 3.43039 76.0746 3.20169 76.0966 2.97662C76.1258 2.86772 76.1551 2.75881 76.1844 2.65354C76.199 2.6245 76.2137 2.59183 76.2247 2.56278C76.3454 2.25422 76.4479 1.9384 76.5394 1.61895C76.6309 1.29949 76.715 0.958261 76.6894 0.620658C76.6894 0.613398 76.6894 0.606137 76.6894 0.598877H74.6803C74.6803 0.838466 74.673 1.08169 74.7133 1.31039C74.7352 1.45196 74.7938 1.58628 74.8487 1.72059L74.845 1.72785Z" fill="#704633"/>
<path d="M77.963 2.25785C77.974 2.47929 77.9447 2.78059 78.1716 2.91128C78.4643 3.07464 78.6546 2.72614 78.7608 2.51559C78.8742 2.28326 78.9803 2.05093 79.0938 1.81498C79.2036 1.58628 79.3134 1.35395 79.3865 1.11073C79.4341 0.947371 79.4707 0.744083 79.3975 0.598877H77.952C77.9483 0.617028 77.9374 0.631548 77.9374 0.653329C77.9337 1.18696 77.9374 1.72422 77.963 2.25785Z" fill="#704633"/>
</svg>
